<?xml version="1.0" encoding="utf-8"?>
<!-- Generator: Adobe Illustrator 21.0.0, SVG Export Plug-In . SVG Version: 6.00 Build 0)  -->
<svg version="1.1" xmlns="http://www.w3.org/2000/svg" xmlns:xlink="http://www.w3.org/1999/xlink" x="0px" y="0px"
	 viewBox="0 0 1366 768" style="enable-background:new 0 0 1366 768;" xml:space="preserve">
<style type="text/css">
	.st0{fill:none;stroke:#000000;stroke-width:2;stroke-miterlimit:10;}
	.st1{fill:none;stroke:#E6E6E6;stroke-width:2;stroke-miterlimit:10;}
	.st2{stroke:#000000;stroke-width:0.5;stroke-miterlimit:10;}
	.st3{fill:#E6E6E6;stroke:#E6E6E6;stroke-width:0.5;stroke-miterlimit:10;}
	.st4{fill:#E6E6E6;}
	.st5{fill:none;stroke:#E6E6E6;stroke-miterlimit:10;}
</style>
<g id="Layer_2">
	<path class="st0" d="M339.2,428c0,0.2,0,0.3,0.1,0.5c0,0.1,0,0.2,0,0.3c0,0.3,0.1,0.5,0.1,0.7c0,0,0,0.1,0,0.1"/>
	<path class="st1" d="M339,428c17.2,116.9,115.2,206.5,233.5,206.5c118.2,0,216.1-89.4,233.5-206.1"/>
	<path class="st0" d="M805,428c0,0.2,0,0.4-0.1,0.6"/>
	<g id="Layer_1">
		<path class="st2" d="M340.5,428.7c0-0.1-0.2-0.2-0.3-0.2h-1.4c-0.1,0-0.2,0-0.2,0.1c0.1,0.1,0.2,0.1,0.3,0.1L340.5,428.7
			C340.5,428.8,340.5,428.7,340.5,428.7z"/>
		<path class="st2" d="M804.8,428.8L804.8,428.8c0.1,0,0.1-0.1,0.1-0.1C804.9,428.7,804.8,428.7,804.8,428.8z"/>
		<path class="st3" d="M806,428C806,428,806,428,806,428l-34.3-48.7l-13.5-20.8c-0.1-0.2-0.4-0.2-0.5-0.1l-20.8,14
			c-0.1,0.1-0.3,0.1-0.4,0l-26.3-12.1c-0.1-0.1-0.3,0-0.4,0.1l-31.9,30.3c-0.1,0.1-0.3,0.1-0.5,0l-22.9-16c-0.1-0.1-0.3-0.1-0.4,0
			l-17.4,12.6c-0.2,0.1-0.3,0.1-0.5,0l-87.4-85.9c-0.2-0.2-0.4-0.2-0.5,0l-64.7,73.6c-0.2,0.2-0.4,0.2-0.6,0l-8.4-9
			c-0.1-0.1-0.4-0.2-0.5,0l-65.4,56.8c-0.1,0.1-0.3,0.1-0.4,0l-40-24.9c-0.2-0.1-0.4-0.1-0.5,0.1c-2,2.1-17.6,18.3-25.2,26.5
			c-1.6,1.8-5.1,3.1-4.1,4.1c0,0,0,0.1,0.1,0.1c0-0.1,0.1-0.1,0.2-0.1h1.4c0.1,0,0.3,0.1,0.3,0.2c0,0,0,0,0,0.1c0,0,0,0,0,0v0.4
			c0,0.2-0.1,0.3-0.3,0.3h-0.6c0,0-0.1,0.1-0.1,0.1c0.2,1.8,0.5,3.6,0.8,5.4h2.3l0,6.4l2.6,0l0,6.2l4.7,0l0,7.8l4.9,0l0,7.6l4.7,0
			l0,7.7l5,0l-0.1,7.6l4.9,0l-0.2,7.7l6.7,0l0,11l24.1-0.1l0-11l6.7,0l-0.2-7.7l4.9,0l-0.1-7.6l5,0l0-7.7l4.7,0l0-7.5l4.9,0l0-7.8
			l4.7,0l0-6.2l14,0l0,2l1.2,0c0,1-0.1,2-0.2,3c-0.1,1.6-0.2,3.2-0.3,4.8c0,0.3-0.1,0.5-0.4,0.6c-0.6,0.1-0.9,0.6-0.9,1.1
			c0,0.6,0.3,1,0.8,1.2c0.3,0.1,0.4,0.2,0.4,0.5c-0.1,1.2-0.1,2.5-0.2,3.7c0,0.7-0.1,1.4-0.1,2.1c0,0.2-0.1,0.4-0.4,0.4
			c-0.6,0.1-1,0.6-1,1.2c0,0.6,0.3,1.1,0.9,1.3c0.2,0.1,0.3,0.2,0.3,0.4c0,0.8-0.1,1.6-0.1,2.5c0,1.1-0.2,2.3-0.2,3.4
			c0,0.2-0.1,0.4-0.4,0.4c-0.6,0.2-1,0.6-1,1.2c0,0.6,0.3,1,1,1.2c0.2,0.1,0.2,0.2,0.2,0.3c-0.1,1.3-0.2,2.5-0.2,3.7
			c0,0.7-0.1,1.4-0.1,2.2c0,0.2-0.1,0.4-0.4,0.5c-0.6,0.1-1,0.6-1,1.2c0,0.5,0.3,1,0.9,1.2c0.2,0.1,0.3,0.1,0.2,0.3
			c-0.1,2-0.2,4-0.3,6c0,0.2-0.1,0.3-0.3,0.4c-0.7,0.2-1.1,0.6-1.1,1.2c0,0.6,0.3,1,0.9,1.2c0.2,0.1,0.3,0.2,0.3,0.4
			c-0.1,2-0.3,3.9-0.4,5.9c0,0.2-0.1,0.3-0.3,0.4c-0.6,0.1-1,0.5-1,1.1c-0.1,0.5,0.2,1.1,0.7,1.3c0.5,0.2,0.5,0.4,0.4,0.7
			c-0.1,1.9-0.2,3.7-0.3,5.6c0,0.3-0.1,0.4-0.4,0.5c-0.7,0.1-1,0.7-0.9,1.4c0.1,0.6,0.6,1,1.2,1.1c1.1,0.1,2.1,0.1,3.2,0.2
			c0.6,0,0.6,0,0.6,0.6c-0.1,0.9-0.1,1.8-0.2,2.7c-0.1,1.2-0.2,2.4-0.2,3.6c0,0.3-0.1,0.3-0.4,0.4c-0.6,0.2-1,0.7-1,1.2
			c0,0.8,0.6,1.3,1.4,1.3c1.3,0,2.6,0.1,3.9,0.2c1.6,0.1,3.3,0.2,5,0.3c0.7,0,1.3,0.1,2,0.1c-0.1,0.8-0.1,1.5-0.2,2.3
			c0,0.1,0,0.1-0.1,0.2c-0.4,0.3-0.9,0.3-1.4,0.2c-0.4-0.1-0.7-0.3-1.1-0.5c-0.3-0.1-0.5-0.3-0.8-0.4c-0.6-0.2-1.1-0.2-1.6,0.2
			c-0.1,0-0.1,0.1-0.1,0.1c-0.1,1.3-0.2,2.5-0.3,3.7c0,0,0,0.1,0,0.1c0,0,0.1,0,0.1,0c0.4-0.2,0.8-0.3,1.2-0.3
			c0.3,0,0.6,0.2,0.8,0.3c0.4,0.2,0.8,0.4,1.2,0.6c0.3,0.1,0.7,0.2,1,0.1c0.3-0.1,0.5-0.2,0.7-0.3c0,0,0,0.1,0,0.1
			c0,0.2,0.4,0.4,0.6,0.4c0.2-0.1,0.4-0.3,0.4-0.4c0.1-1.1,0.2-2.3,0.3-3.4c0.1-1,0.1-1.9,0.2-2.9c0.2,0,0.4,0,0.6,0
			c1.3,0.1,2.6,0.1,3.9,0.2c0.7,0,1.2-0.4,1.3-1.1c0.1-0.6-0.3-1.2-0.9-1.4c-0.2-0.1-0.3-0.2-0.3-0.4c0.1-2.2,0.3-4.4,0.4-6.5
			c0-0.3,0.1-0.4,0.4-0.4c1.1,0.1,2.3,0.2,3.4,0.2c0.7,0,1.1-0.3,1.3-1c0.1-0.6-0.2-1.2-0.8-1.4c-0.3-0.1-0.3-0.3-0.3-0.5
			c0.1-1.3,0.1-2.5,0.2-3.7c0-0.7,0.1-1.4,0.1-2.1c0-0.2,0.1-0.4,0.4-0.4c0.6-0.2,1-0.6,1-1.1c0-0.6-0.3-1-0.9-1.3
			c-0.2-0.1-0.3-0.2-0.3-0.5c0.1-1,0-2,0.3-3c0,0,0-0.1-0.1-0.1c-0.1-0.1-0.1-0.3-0.1-0.4c0.1-0.8,0.1-1.6,0.1-2.4
			c0-0.3,0.1-0.4,0.4-0.4c0.6-0.1,1-0.6,1-1.2c0-0.5-0.4-1.1-0.9-1.2c-0.2-0.1-0.3-0.1-0.3-0.3c0.1-1.9,0.2-3.9,0.4-5.8
			c0-0.3,0-0.4,0.3-0.5c0.7-0.2,1-0.6,1-1.2c0-0.5-0.3-1-1-1.2c-0.2-0.1-0.2-0.2-0.2-0.3c0.1-2,0.2-4,0.3-5.9c0-0.2,0.1-0.4,0.3-0.4
			c0.6-0.2,1-0.6,1.1-1.2c0-0.5-0.3-1-0.9-1.3c-0.3-0.1-0.3-0.3-0.3-0.5c0.1-0.8,0.1-1.5,0.2-2.3c0.1-1.1,0.1-2.2,0.2-3.4
			c0-0.4,0.1-0.5,0.5-0.6c0.6-0.2,0.9-0.6,0.9-1.2c0-0.4-0.3-1-0.8-1.1c-0.5-0.1-0.5-0.4-0.4-0.8c0.1-1.9,0.3-3.7,0.4-5.6
			c0-0.3,0.1-0.4,0.4-0.5c0.6-0.1,1-0.6,1-1.1c0-0.6-0.2-1.1-0.8-1.3c-0.3-0.1-0.3-0.2-0.3-0.5c0.1-1.3,0.2-2.6,0.2-3.9
			c0.1-1.9,0.2-3.7,0.3-5.6l3.2,0c2.2,4,7.4,13.3,11.6,18.6l0.1,7.1l2.1,0c0,0,4.3,7,6.9,18.6l-1.3,0.7l0,3.1l1.4,0l0,1l1.1,0
			c0,0,6.1,44.9,4.9,56.4c0,0-1.3,0.1-1.5,0.5l0,2.8c0,0,0.5,1.2,1,1.7l0,0.7h-0.5l0,0.9c0,0,1.2,0.8,2.1,1l0,1.3l0.5,0l0,3.8l0.3,0
			l0.2,4.5l0.1-4.5h0.3l0-3.8l0.5,0l0-1.3c0.9-0.1,2.1-1,2.1-1v-0.8l-0.4,0l0-0.7c0.5-0.4,1-1.7,1-1.7l0-2.8
			c-0.3-0.3-1.5-0.4-1.5-0.4c-1.5-11.5,3.4-56.5,3.4-56.5l1.1,0l0-1l1.4,0l0-3.1l-1.3-0.6C511,475.1,515,468,515,468l2.1,0l-0.1-7.1
			c4-5.4,9.1-14.8,11.1-18.9l2.2,0l0,3.6c0,0.3,0.3,0.5,0.5,0.5l0.8,0c0.3,0,0.5,0.2,0.5,0.5l1.3,25.7c0,0.1,0,1.2,1.2,1.3
			c0,0,0.1,0,0.1,0.1l0.1,2.4c0,0,0,0.2,0.1,0.2c0.1,0,0.1-0.1,0.1-0.2c0,0,0,0,0,0l0-2.4c0,0,0-0.1,0.1-0.1
			c1.3-0.2,1.2-1.4,1.2-1.4l0.7-26.2l5.2-0.1l1.1,19.8c0,0.1,0,1,1,1l0.1,1.9c0,0,0,0.1,0.1,0.1c0.1,0,0.1-0.1,0.1-0.1l0-1.9
			c1-0.1,1-1,1-1.1v0l0.5-19.8l4.7-0.1l0.2,14.1l0.4,0l0,2.4l2.6,0l0-2.2l3.2,0l0,3.9l1,0c0,0-0.3,2,3,3.2c0,0,0,0,0,0
			c0,0.5,0.5,5.8,0.8,0c0,0,0,0,0,0c0.1,0,1.5-0.4,2.5-1.9l0.2,0l0,0.6l1.2,0v0.3c0,0-4.2,3.1-3.8,7.1c0.5,4,5.6,7,5.6,7
			s6.5,4.1,6.8,4.9c0,0,0.1,4.7,0.4,4.9h0.1c0.3-0.2,0.3-4.9,0.3-4.9c0.3-0.8,6.6-5,6.6-5s5.1-3.1,5.4-7.1c0.4-4-3.9-7-3.9-7v-0.3
			l1.1,0V465h0.2c1.1,1.4,2.5,1.8,2.6,1.8c0,0,0,0,0,0c0.4,5.7,0.7,0.4,0.8,0c0,0,0,0,0,0c3.2-1.3,2.9-3.3,2.9-3.3l1,0l0-3.9l3.2,0
			l0,2.2l2.6,0l0-2.3h0.4l-0.2-14.1l4.6-0.1l1.1,19.9c0,0.1,0,1,1,1l0.1,1.9c0,0,0,0.1,0.1,0.1c0.1,0,0.1-0.1,0.1-0.1c0,0,0,0,0,0
			l0-1.9c1-0.1,1-1,1-1.1v0l0.5-19.9l5.2-0.1l1.4,26.2c0,0.1,0,1.2,1.2,1.4c0,0,0,0,0,0.1l0.1,2.4c0,0,0,0.2,0.1,0.2
			c0.1,0,0.1-0.1,0.1-0.2c0,0,0,0,0,0l0-2.4c0,0,0,0,0.1-0.1c1.3-0.1,1.2-1.4,1.2-1.4l0.7-25.8c0-0.3,0.2-0.5,0.5-0.5l0.7,0
			c0.3,0,0.5-0.2,0.5-0.5l0-3.6l1.2,0l0,0.9l2.9,0l0,2.1l3,0l0.3,19.4l2.3,0l0.3,25l3.2,0l0.4,29.2l2.4,0l0.4,30.8l2.5,0l0.2,15.4
			l1.1,0l0.3,20.1l0.9,0l0.1,10.2l1.1,0l0.3,19.1l0.8,0l-0.2-12.2l1.5,0l-0.3-23.6l1.4,0l-0.1-7.8l1.5,0l-0.1-9.8l1.8,0l-0.4-33.2
			l2.4,0l-0.4-29.5l2.7,0l-0.4-26.4l2.9,0l-0.4-27l3.2,0l0-1.9l2.9,0l0-0.7v0l13.8-0.2c0,0,0,0.1,0,0.2c1.9,9.2,8.1,42.2,3.5,62.7
			c0,0-37.7,6.6-4.9,16.1c0,0-6.7,5.5,8.4,6.4l1.6,20.8l0.2,3l1.2-23.8c15-1.3,8.2-6.6,8.2-6.6c32.6-10.3-5.3-16-5.3-16
			c-5.1-20.2,0.2-53.2,1.8-62.6c0-0.1,0-0.2,0.1-0.3l6.7-0.1c0,0.1,0,0.2,0,0.4c0.1,1.5,0.2,3,0.2,4.4c0.2,4.2,0.4,8.4,0.6,12.6
			c0.1,1.8,0.8,3.3,2.1,4.6c1.7,1.6,3.7,2.6,5.9,3.3c6.2,2.2,12.7,2.8,19.2,3.3c2.1,0.1,4.3,0.2,6.4,0.3c2.1,0,4.1,0,6.2,0
			c0.4,0,0.6-0.2,0.7-0.6c0-0.6,0.2-1.2,0.2-1.8c0-0.5,0.3-0.7,0.8-0.7c1.5,0,1.3-0.1,1.3,1.2c0,0.1,0,0.1,0,0.2
			c0,0.4,0.2,0.6,0.6,0.6c0.6,0,1.1,0,1.7,0c1.4,0,1.4,0,1.4-1.3c0-0.4,0.1-0.6,0.6-0.6c1.1,0,2.1,0,3.2,0c0.3,0,0.6,0.1,0.8,0.3
			c0.8,0.8,1.7,1.5,2.5,2.3c0.3,0.3,0.7,0.4,1.1,0.4c1.2,0,2.4-0.1,3.5-0.3c0.6-0.1,0.9,0.1,1.1,0.7c0.4,1.3,0.8,2.7,1.2,4
			c0.2,0.6,0.4,1.3,0.9,1.8c0.5,0.5,0.5,1.2,0.1,1.8c-0.2,0.2-0.2,0.5-0.2,0.8c0.2,1.3,0.1,2.6,0.2,3.9c0,0.8,1.2,1.9,2,1.9
			c0.5,0,0.8,0.2,0.9,0.6c0.8,1.9,1.6,3.8,2.3,5.8c0.5,1.3,1.1,2.3,2.3,2.9c0.4,0.2,0.5,0.5,0.5,0.9c-0.1,0.6,0.2,0.9,0.7,1.2
			c0.3,0.2,0.5,0.4,0.8,0.6c0.4,0.4,0.8,0.4,1.3,0.2c2.5-0.9,5.1-1.9,7.5-3.1c4.3-2.1,8.4-4.5,11.7-7.9c1.9-1.9,3.4-4.1,4.1-6.7
			c0.2-0.5,0.1-0.9-0.4-1.2c-1.1-0.6-1-0.7-0.4-1.9c0.1-0.3,0.3-0.6,0.5-0.8c0.2-0.3,0.3-0.7,0.2-1c-0.2-0.9-0.2-1.8-0.3-2.8
			c-0.1-1.4-0.3-2.8,0.7-4.1c0.4-0.5,0.5-1.2,0.6-1.8c0.1-0.7,0.1-1.4-0.2-2.1c-0.2-0.4-0.3-0.7-0.3-1.1c0-0.5,0-1.1,0-1.6
			c-0.1-1.2-0.1-2.5,1-3.4c0.1,0,0.1-0.1,0.1-0.2c0.6-1.1,0.7-2.1-0.2-3.1c-0.2-0.2-0.2-0.5-0.2-0.8c0-1.2,0-2.4-0.1-3.6
			c0-0.5-0.1-1.1,0.5-1.4c0.1-0.1,0.2-0.3,0.2-0.4c0.2-0.8,0.2-1.7,0.2-2.5c0-0.8-0.5-1.5-0.6-2.3c0-0.5,0-1,0-1.5l0.4,0l0-4.8h9.8
			c0,0,0,0,0,0l0.2-1c-0.1,0.5-0.1,1-0.2,1.5c0.6-0.4,1.4-1.6,2-3.3C806.7,430.1,806.7,428.2,806,428z M382.5,485.3l-9.2-44l3.9,0
			l6.3,44L382.5,485.3z M346.2,424l21.5-22.6c0.2-0.2,0.4-0.1,0.6,0l17,22.3L346.2,424z M385.4,490.1l0-4.5l5,0l0,4.4L385.4,490.1z
			 M393.3,485.2h-1.1l6-44l3.9,0L393.3,485.2z M445.4,481.6c0-0.2,0.1-0.2,0.3-0.2c0.6,0,1.3,0.1,1.9,0.1c0.2,0,0.2,0.2,0.2,0.3
			c0,0.7-0.1,1.4-0.1,2.1c0,0.6-0.1,1.1-0.1,1.7c-0.1,0.9-0.9,1.4-1.8,1c-0.5-0.2-0.7-0.7-0.7-1
			C445.3,484.2,445.3,482.9,445.4,481.6z M457.2,459.8c-0.7,0.2-1.5-0.3-1.5-1c0-0.6,0-1.1,0.1-1.7c0-0.7,0.1-1.3,0.1-2
			c0-0.7,0-0.7,0.6-0.7c0.5,0,1,0,1.5,0.1c0.3,0,0.4,0.1,0.4,0.4c-0.1,1.2-0.2,2.5-0.2,3.7C458.1,459.2,457.8,459.7,457.2,459.8z
			 M457.8,464c-0.1,1.3-0.2,2.6-0.2,3.9c0,0.7-0.6,1.1-1.3,1.1c-0.7,0-1.2-0.5-1.2-1.2l0-0.3c0.1-1.2,0.2-2.4,0.2-3.6
			c0-0.3,0.1-0.3,0.4-0.3c0.6,0,1.2,0.1,1.8,0.1C457.8,463.7,457.8,463.8,457.8,464z M456.9,443c-0.1,1.8-0.2,3.6-0.4,5.5
			c-0.1,0.9-0.9,1.5-1.9,1.5c-0.9,0-1.7-0.8-1.7-1.6c0-1,0.1-2,0.2-3c0-0.8,0.1-1.5,0.1-2.3c0-0.1,0-0.1,0-0.2
			c0.1-0.1,0.2-0.2,0.4-0.2c0.5,0,1,0,1.5,0c0.5,0,1,0,1.5,0c0.2,0,0.3,0,0.3,0.2C456.9,442.9,456.9,443,456.9,443z M453.5,454.3
			c0.3,0,0.4,0.1,0.3,0.3c-0.1,1.3-0.1,2.6-0.2,4c-0.1,0.7-0.6,1.1-1.4,1c-0.6,0-1.1-0.5-1.1-1.2c0-0.1,0-0.2,0-0.3c0,0,0,0,0,0
			c0.1-1.2,0.1-2.3,0.2-3.5c0-0.4,0.1-0.5,0.5-0.4C452.5,454.3,453,454.3,453.5,454.3z M451.8,468.8c-0.7,0-1.1-0.6-1.1-1.5
			c0.1-1.1,0.2-2.3,0.2-3.6c0-0.2,0.1-0.3,0.3-0.3c0.6,0,1.3,0.1,1.9,0.1c0.2,0,0.2,0.1,0.2,0.3c-0.1,1.3-0.2,2.6-0.2,3.9
			C453.1,468.3,452.6,468.8,451.8,468.8z M452.8,472.9c-0.1,1.3-0.2,2.6-0.3,3.9c0,0.6-0.7,1.1-1.3,1.1c-0.7,0-1.1-0.5-1.2-1.5
			c0.1-1.1,0.2-2.4,0.2-3.6c0-0.3,0.1-0.4,0.4-0.4c0.6,0,1.2,0.1,1.8,0.1C452.8,472.6,452.8,472.7,452.8,472.9z M451.2,447
			c0,0.4,0,0.8-0.1,1.1c-0.1,1-0.9,1.7-1.9,1.6c-1,0-1.8-0.8-1.7-1.8c0-1.6,0.2-3.1,0.2-4.7c0-0.1,0-0.1,0-0.2
			c0.1-0.1,0.2-0.2,0.4-0.2c0.5,0,1,0,1.5,0c0.5,0,1,0,1.5,0c0.2,0,0.3,0,0.3,0.2c0,0,0,0.1,0,0.1
			C451.3,444.4,451.3,445.7,451.2,447z M449.3,454.1c0.2,0,0.2,0.1,0.2,0.3c-0.1,0.9-0.1,1.9-0.2,2.8c0,0.4,0,0.8-0.1,1.1
			c-0.1,0.8-0.6,1.2-1.3,1.2c-0.7-0.1-1.1-0.6-1-1.3l0-0.2c0.1-1.3,0.2-2.5,0.2-3.7c0-0.2,0.1-0.3,0.3-0.3
			C448,454,448.6,454,449.3,454.1z M446.9,463.1c0.6,0,1.2,0.1,1.8,0.1c0.2,0,0.3,0.1,0.2,0.3c-0.1,1.3-0.2,2.5-0.2,3.8
			c0,0.7-0.6,1.2-1.3,1.2c-0.7,0-1.2-0.6-1.2-1.2c0-0.1,0-0.2,0-0.4c0-1.1,0.1-2.3,0.2-3.4C446.5,463.2,446.6,463.1,446.9,463.1z
			 M446.6,472.2c0.5,0,1,0,1.5,0.1c0.2,0,0.3,0.1,0.3,0.3c-0.1,1.2-0.2,2.5-0.2,3.8c0,0.7-0.6,1.3-1.2,1.2c-0.6,0-1.3-0.5-1.2-1.3
			c0.1-1.3,0.2-2.6,0.3-3.9c0-0.2,0.1-0.3,0.3-0.2C446.4,472.2,446.5,472.2,446.6,472.2z M446.6,502.4c0,0.5,0,1-0.1,1.5
			c-0.1,0.6-0.7,1.1-1.3,1c-0.7,0-1.2-0.6-1.2-1.2c0-1.1,0.1-2.2,0.2-3.3c0-0.1,0-0.1,0-0.2c0-0.6,0-0.6,0.8-0.6
			c0.4,0,0.8,0,1.3,0.1c0.3,0,0.4,0.2,0.3,0.4C446.7,500.8,446.7,501.6,446.6,502.4z M447,494.8c0,0.6-0.6,1.1-1.3,1
			c-0.6,0-1.2-0.5-1.2-1.2c0-0.8,0.1-1.7,0.1-2.5c0-0.5,0.1-0.9,0.1-1.4c0-0.3,0.1-0.5,0.5-0.4c0.1,0,0.1,0,0.1,0c0.5,0,1,0,1.4,0.1
			c0.3,0,0.4,0.1,0.4,0.4C447.2,492.3,447.2,493.5,447,494.8z M449.8,512.6c0,0.4-0.1,0.9-0.1,1.3c-0.1,0.6-0.5,1-1.2,1
			c-0.7,0-1.1-0.5-1.2-1.1c0-0.2,0-0.3,0-0.4c0.1-1.5,0.2-2.9,0.3-4.3c0-0.2,0.1-0.3,0.3-0.3c0.6,0,1.2,0.1,1.8,0.1
			c0.3,0,0.3,0.1,0.3,0.4C450,510.4,449.9,511.5,449.8,512.6z M450.9,504.2c-0.1,0.6-0.6,1.1-1.3,1.1c-0.7,0-1.1-0.5-1.1-1.2
			c0-0.1,0-0.3,0-0.4c0.1-1.3,0.1-2.5,0.2-3.7c0-0.2,0.1-0.3,0.3-0.3c0.6,0,1.2,0.1,1.8,0.1c0.3,0,0.4,0.1,0.4,0.4
			C451.1,501.6,451,502.9,450.9,504.2z M451.5,495.1c0,0.6-0.6,1-1.3,1c-0.6,0-1.2-0.6-1.1-1.2c0.1-1.3,0.2-2.6,0.2-4
			c0-0.4,0.3-0.2,0.5-0.3c0.5,0,1.1,0.1,1.6,0.1c0.2,0,0.3,0.1,0.3,0.3C451.6,492.5,451.6,493.8,451.5,495.1z M452,486
			c0,0.6-0.6,1.1-1.3,1c-0.6,0-1.1-0.5-1.1-1.3c0.1-1.3,0.2-2.6,0.2-3.9c0-0.2,0.1-0.3,0.3-0.2c0.6,0,1.2,0.1,1.8,0.1
			c0.3,0,0.3,0.1,0.3,0.3C452.2,483.3,452.1,484.6,452,486z M455.1,509.6c0,0.8-0.1,1.6-0.1,2.4c0,0.6-0.1,1.2-0.1,1.8
			c0,0.8-0.5,1.3-1.2,1.3c-0.8,0-1.2-0.4-1.3-1.1v-0.3h0c0.1-1.4,0.2-2.9,0.3-4.3c0-0.2,0.1-0.3,0.3-0.3c0.6,0,1.3,0.1,1.9,0.1
			C455.1,509.3,455.1,509.4,455.1,509.6z M455.4,504.5c0,0.5-0.6,1-1.2,1c-0.6,0-1.1-0.4-1.2-0.9c0-0.2,0-0.4,0-0.7c0,0,0,0,0,0
			c0.1-1.2,0.1-2.3,0.2-3.5c0-0.3,0.1-0.4,0.4-0.3c0.5,0,1.1,0,1.6,0.1c0.3,0,0.4,0.1,0.4,0.4C455.5,501.9,455.5,503.2,455.4,504.5z
			 M456.2,491.6c-0.1,1.2-0.1,2.4-0.3,3.7c0,0.7-0.6,1.1-1.3,1.1c-0.6,0-1.1-0.6-1.1-1.2c0-0.7,0.1-1.4,0.1-2.2
			c0-0.6,0.1-1.1,0.1-1.7c0-0.3,0.1-0.4,0.4-0.3c0.6,0,1.2,0.1,1.8,0.1C456.3,491.1,456.1,491.4,456.2,491.6z M456.5,486.3
			c0,0.6-0.7,1-1.2,1c-0.7,0-1.2-0.6-1.2-1.2c0.1-1.3,0.2-2.7,0.2-4c0-0.2,0.1-0.3,0.3-0.2c0.1,0,0.3,0,0.4,0c0.5,0,1,0.1,1.5,0.1
			c0.2,0,0.3,0.1,0.3,0.3C456.6,483.5,456.6,484.9,456.5,486.3z M457,477c0,0.6-0.5,1.1-1.2,1.1c-0.6,0-1.2-0.5-1.2-1.1
			c0-0.8,0.1-1.7,0.1-2.5c0-0.4,0.1-0.8,0.1-1.2c0-0.6,0-0.6,0.6-0.6c0.5,0,0.9,0,1.4,0.1c0.3,0,0.4,0.1,0.4,0.4
			C457.2,474.5,457.1,475.7,457,477z M457.6,500.6c0-0.2,0.1-0.3,0.3-0.3c0.7,0,1.3,0.1,1.9,0.1c0.2,0,0.2,0.1,0.2,0.2
			c-0.1,1.3-0.1,2.6-0.2,3.9c0,0.6-0.4,1-0.9,1.2c-0.5,0.1-1,0-1.3-0.5c-0.2-0.2-0.2-0.3-0.2-1.3C457.5,503,457.5,501.8,457.6,500.6
			z M460.2,509.9c0,0.8-0.1,1.6-0.1,2.4c0,0.6-0.1,1.2-0.1,1.8c0,0.8-0.5,1.3-1.2,1.3c-0.8,0-1.2-0.4-1.3-1.1V514
			c0.1-1.4,0.2-2.8,0.3-4.3c0-0.2,0.1-0.3,0.3-0.3c0.6,0,1.2,0.1,1.9,0.1C460.2,509.6,460.2,509.7,460.2,509.9z M460.3,495.6
			c0,0.6-0.6,1-1.2,1c-0.6,0-1.1-0.4-1.2-1c0-0.2,0-0.4,0-0.4c0.1-1.3,0.1-2.5,0.2-3.6c0-0.3,0.1-0.4,0.4-0.3
			c0.6,0.1,1.2,0.1,1.7,0.1c0.2,0,0.3,0.1,0.3,0.3C460.5,492.9,460.5,494.3,460.3,495.6z M462.2,446.9c0,0.5-0.1,1.1-0.1,1.6
			c0,0.7-0.3,1.3-1,1.6c-0.7,0.3-1.4,0.3-2-0.2c-0.7-0.5-0.7-1.2-0.7-1.9c0.1-1.3,0.2-2.7,0.2-4c0-0.3,0.1-0.7,0.1-1
			c0,0,0-0.1,0-0.1c0-0.1,0.1-0.2,0.3-0.2c0.5,0,1,0,1.5,0c0.5,0,1,0,1.5,0c0.2,0,0.3,0,0.4,0.2c0,0,0,0.1,0,0.2
			C462.3,444.3,462.3,445.6,462.2,446.9z M462.5,454.8c0.2,0,0.3,0.1,0.3,0.3c-0.1,1.3-0.1,2.6-0.2,3.8c0,0.7-0.6,1.2-1.2,1.2
			c-0.6,0-1.2-0.5-1.2-1.2c0.1-1.3,0.2-2.5,0.2-3.8c0-0.4,0.2-0.5,0.5-0.4c0.1,0,0.2,0,0.2,0C461.6,454.7,462,454.8,462.5,454.8z
			 M460.9,486.4c-0.1,0.7-0.6,1.1-1.4,1c-0.6,0-1.1-0.6-1.1-1.3c0.1-1.3,0.2-2.6,0.3-3.9c0-0.2,0.1-0.3,0.3-0.3
			c0.6,0,1.1,0.1,1.7,0.1c0.4,0,0.4,0,0.4,0.4C461.1,483.8,461,485.1,460.9,486.4z M461.7,473.4c0,0.8-0.1,1.6-0.1,2.4
			c0,0.4-0.1,0.9-0.1,1.3c0,0.8-0.7,1.3-1.3,1.2c-0.7,0-1.2-0.6-1.2-1.3c0.1-1.3,0.2-2.6,0.3-3.8c0-0.2,0.1-0.3,0.3-0.2
			c0.6,0,1.2,0.1,1.9,0.1C461.7,473,461.7,473.2,461.7,473.4z M460.7,469.2c-0.7,0-1.1-0.5-1.1-1.2c0.1-1.4,0.2-2.7,0.2-4
			c0-0.2,0.1-0.2,0.3-0.2c0.6,0,1.2,0.1,1.8,0.1c0.3,0,0.3,0.1,0.3,0.4c-0.1,1.3-0.2,2.6-0.3,3.9C462,468.8,461.4,469.3,460.7,469.2
			z M464.5,501.1c0,0,0,0.1,0,0.2c-0.1,1.2-0.1,2.3-0.2,3.5c0,0.8-0.5,1.2-1.2,1.2c-0.7,0-1.3-0.5-1.3-1.1c0-0.6,0-1.2,0.1-1.8
			c0-0.6,0.1-1.3,0.1-1.9c0-0.6,0-0.6,0.6-0.6c0.5,0,0.9,0.1,1.4,0.1C464.4,500.6,464.6,500.7,464.5,501.1z M464.8,495.6
			c0,0.7-0.5,1.2-1.2,1.2c-0.7,0-1.2-0.4-1.2-1.1c0-0.4,0-0.7,0-1.1c0-0.9,0.1-1.9,0.2-2.8c0-0.4,0.1-0.5,0.5-0.4
			c0.5,0,0.9,0.1,1.4,0.1c0.5,0,0.5,0,0.5,0.5C465,493.2,464.9,494.4,464.8,495.6z M465.3,486.6c-0.1,0.7-0.6,1.1-1.2,1.1
			c-0.7,0-1.1-0.5-1.1-1.2v-0.3h0l0.2-3.6c0-0.2,0.1-0.3,0.3-0.3c0.6,0,1.2,0.1,1.8,0.1c0.3,0,0.4,0.2,0.4,0.4
			C465.5,484.1,465.4,485.3,465.3,486.6z M466.1,473.6c0,0.8-0.1,1.6-0.1,2.4c0,0.5-0.1,1-0.1,1.5c0,0.6-0.5,1.1-1.2,1.1
			c-0.7,0-1.3-0.6-1.2-1.3c0.1-1.3,0.2-2.5,0.2-3.8c0-0.3,0.2-0.3,0.4-0.3c0.6,0,1.2,0.1,1.8,0.1
			C466.1,473.3,466.1,473.4,466.1,473.6z M466.4,468.5c0,0.6-0.7,1.1-1.3,1c-0.7,0-1.2-0.6-1.2-1.3c0.1-1.3,0.2-2.6,0.3-3.9
			c0-0.2,0.1-0.3,0.3-0.2c0.6,0,1.3,0.1,1.9,0.1c0.2,0,0.3,0.1,0.2,0.3C466.6,465.8,466.5,467.1,466.4,468.5z M467,459.3
			c0,0.6-0.6,1.1-1.2,1.1c-0.7,0-1.2-0.5-1.2-1.1c0-0.9,0.1-1.9,0.1-2.8c0-0.3,0-0.6,0-0.8c0-0.6,0-0.6,0.8-0.6
			c0.4,0,0.9,0.1,1.4,0.1c0.3,0,0.4,0.1,0.3,0.4C467.1,456.7,467.1,458,467,459.3z M467.7,447.3c0,0.5-0.1,1-0.1,1.4
			c0,1.1-0.8,1.8-1.9,1.8c-1,0-1.9-0.8-1.8-1.9c0.1-1.5,0.2-3,0.3-4.5c0-0.4,0.1-0.8,0.1-1.2c0-0.1,0-0.2,0-0.2
			c0-0.1,0.2-0.2,0.4-0.2c0.3,0,0.5,0,0.8,0v0c0.7,0,1.4,0,2.1,0c0.2,0,0.3,0,0.4,0.2c0,0.1,0,0.1,0,0.2
			C467.9,444.4,467.8,445.9,467.7,447.3z M504,483.4l-5.9,0.1l-3.1-14.8l11.6-0.2L504,483.4z M501,457.1l-0.9,0
			c0,0-14.1,1.1-16-14.6l33-0.4C515.6,457.8,501,457.1,501,457.1z M574.8,456c-3.1,0-3.6-3.2-3.6-3.2l-0.1-7.3l7.1-0.1l0.1,7.3
			C578.2,452.7,577.9,456,574.8,456z M700.4,442.8c-0.1,0.3-0.1,0.6-0.5,0.7c-0.4,0-0.5-0.3-0.6-0.6c-0.1-0.2-0.1-0.5-0.1-0.7
			c0-0.7,0-1.4,0-2v-0.4c0-0.5,0-1,0-1.5c0-0.8,0.6-0.6,1-0.7c0.5-0.1,0.4,0.4,0.4,0.6c0,0.5,0,1,0,1.5l0,0.4v0.1
			C700.5,441,700.7,441.9,700.4,442.8z M701.5,439.7l1.4,0l0,0.4v0.1h0c0,0.8,0.1,1.7,0,2.5c0,0.4,0,1-0.6,1.1
			c-0.6,0-0.7-0.6-0.7-1.1c0-0.9-0.1-1.8-0.1-2.6C701.5,440,701.5,439.8,701.5,439.7z M703.2,453.2c0,0.3,0,0.7-0.4,0.7
			c-0.3,0-0.4-0.4-0.4-0.6c-0.1-0.4-0.2-0.7-0.3-1.1c-0.2-1.4-0.3-2.8-0.5-4.2c0-0.2-0.3-0.7,0.3-0.7c0.4,0,1-0.1,1,0.6
			c0.1,1.2,0.3,2.4,0.2,3.5C703.2,452.1,703.2,452.7,703.2,453.2z M704.7,443.5c-0.2-0.3-0.4-0.6-0.4-1c0-0.8,0-1.6,0-2.4
			c0-0.1,0-0.3,0-0.4l1.7,0v0.5l0,2c0,0.5-0.1,0.9-0.3,1.3C705.5,443.9,705,444,704.7,443.5z M706.5,454.5c-0.1,0.3-0.2,0.6-0.5,0.6
			c-0.4,0-0.5-0.3-0.7-0.6c-0.3-0.6-0.3-1.2-0.4-1.8c-0.1-1.1-0.1-2.2,0-3.3c0-0.4,0.1-0.4,0.5-0.3c0.7,0.2,1.2,0.5,1.2,1.3
			c0,0.5,0.1,1.1,0.1,1.6C706.7,452.9,706.7,453.7,706.5,454.5z M707.5,442.4l0-2.3l0-0.5l2.5,0v0.5c0,0.8,0,1.5,0,2.2
			c0,0.5-0.2,0.9-0.4,1.3c-0.4,0.7-1.1,0.7-1.6,0.1C707.6,443.4,707.5,442.9,707.5,442.4z M710,454.8c0,0.2-0.1,0.4-0.2,0.5
			c-0.1,0.2-0.2,0.4-0.5,0.4c-0.3,0-0.4-0.2-0.5-0.4c-0.5-0.9-0.5-2-0.6-3c-0.1-0.8,0-1.6-0.1-2.4c0-0.4,0.1-0.5,0.5-0.5
			c1.4-0.1,1.5-0.1,1.5,1.3l0,1C710.3,452.7,710.2,453.7,710,454.8z M712.1,443.7c-0.4-0.5-0.5-1-0.5-1.5c0-0.7,0-1.4,0-2.1
			c0-0.2,0-0.3,0-0.5l3.4,0v0.5c0,0.7,0,1.4,0,2.1c0,0.5-0.1,1-0.4,1.4C714.1,444.6,712.8,444.7,712.1,443.7z M714.9,455
			c-0.1,0.5-0.3,1.2-1,1.3c-0.7,0-0.9-0.7-1.1-1.2c-0.4-1.8-0.6-3.6-0.4-5.4c0-0.3,0.2-0.4,0.5-0.5c2.1-0.2,2.1-0.2,2.2,1.8l0,0.6
			C715.2,452.7,715.2,453.8,714.9,455z M716.6,440.1c0-0.2,0-0.4,0-0.6l3.4,0v0.6c0,0.8,0,1.6,0,2.4c0,0.5-0.1,1-0.4,1.4
			c-0.5,0.8-1.5,1-2.3,0.3c-0.5-0.4-0.7-1-0.7-1.6C716.6,441.8,716.6,440.9,716.6,440.1z M719.9,455.1c0,0.2-0.1,0.3-0.2,0.5
			c-0.5,0.8-1.2,0.8-1.6,0c-0.5-0.9-0.6-1.8-0.7-2.8c-0.1-0.5,0-1,0-1.5c0,0,0,0,0,0c0-0.6,0-1.1,0-1.7c0-0.4,0.1-0.6,0.6-0.6
			c0.6,0,1.2,0,1.8,0c0.4,0,0.6,0.2,0.7,0.5C720.3,451.4,720.4,453.3,719.9,455.1z M728.8,444.7c-1.6,0-2.7-0.9-2.8-2.3
			c0-0.8,0-1.6,0-2.3l0-0.7l5.2-0.1c0,0.2,0,0.5,0,0.7c0,0.8,0,1.6,0,2.3C731.2,443.6,730.1,444.6,728.8,444.7z M739,443.9
			c-1,0.7-2.2,0.9-3.4,0.4c-0.9-0.4-1.5-1.1-1.5-2.1c0-0.7,0-1.5,0-2.2v-0.7l5.7-0.1v0.8c0,0.7,0,1.5,0,2.2
			C739.9,442.9,739.6,443.5,739,443.9z M748.8,444c-1.3,0.7-2.9,0.5-3.8-0.3c-0.5-0.4-0.7-0.9-0.7-1.5c0-0.7,0-1.4,0-2.2
			c0-0.3,0-0.5,0-0.8l5.7-0.1c0,0,0,0,0,0c0,0.3,0,0.6,0,0.9c0,0.7,0,1.3,0,2C750.1,442.9,749.7,443.6,748.8,444z M758.1,458.6
			c-0.1,0.4-0.2,0.8-0.4,1.1c-0.6,1.1-1.6,1.2-2.4,0.1c-0.6-0.8-0.7-1.7-0.9-2.6c-0.2-0.8-0.2-1.7-0.2-2.6c0-0.6,0-1.2,0-1.7
			c0-0.3,0.1-0.5,0.4-0.4c1,0.1,2.1,0,3.1-0.1c0.5-0.1,0.8,0.1,0.8,0.6C758.5,454.9,758.6,456.8,758.1,458.6z M756.5,444.3
			c-1.1,0-2.4-0.9-2.5-2c0-0.8,0-1.6-0.1-2.4c0-0.3,0-0.6,0-0.9l5.1-0.1v0.2c0,0.3,0,0.5,0,0.8c0,0.7,0,1.5,0,2.2
			C759.1,443.4,758.1,444.2,756.5,444.3z M765.5,471.6c-0.3,1.1-1.2,1.9-2.2,1.9c-0.2,0-0.4,0-0.4-0.3c-0.2-1.3-0.5-2.7-0.4-3.8
			c0-0.7,0-1.2,0-1.7c0-0.4,0.2-0.5,0.5-0.6c0.8-0.1,1.5-0.2,2.3-0.4c0.4-0.1,0.5,0.1,0.5,0.4C765.8,468.6,765.9,470.1,765.5,471.6z
			 M765.9,458.4c-0.2,0.6-0.3,1.3-1,1.3c-0.7,0-1-0.7-1.1-1.2c-0.7-1.9-0.7-4-0.7-6c0-0.3,0.1-0.4,0.4-0.5c0.8-0.1,1.5-0.1,2.3-0.2
			c0.4,0,0.5,0.1,0.5,0.4l0,2.1C766.3,455.7,766.3,457.1,765.9,458.4z M765.5,444.2c-1.1,0-2.2-0.9-2.2-1.9c0-0.8,0-1.6-0.1-2.4
			c0-0.3,0-0.7,0-1l4.7-0.1v0.1c0,0.3,0,0.6,0,0.9c0,0.7,0,1.4,0,2.1C767.9,443.3,766.9,444.1,765.5,444.2z M772,470.5
			c-0.2,0.4-0.4,0.8-0.9,1c-0.4,0.1-0.7,0.1-0.7-0.5c-0.2-1.5,0-3.1-0.3-4.6c-0.1-0.5,0.1-0.7,0.6-0.8c0.6-0.1,1.1-0.2,1.7-0.4
			c0.4-0.1,0.6,0,0.5,0.4C772.7,467.3,772.5,469,772,470.5z M773.4,457.1c-0.1,0.3-0.2,0.7-0.3,1c-0.1,0.3-0.3,0.5-0.7,0.5
			c-0.4,0-0.6-0.3-0.7-0.6c-0.4-0.9-0.5-1.9-0.6-2.8c-0.1-0.6,0-1.1,0-1.7c0-0.6,0-1.3,0-1.9c0-0.4,0.1-0.5,0.5-0.5
			c2.2-0.1,2.2-0.1,2.2,2C773.8,454.4,773.7,455.8,773.4,457.1z M772.8,443.8c-1.1,0-2-0.9-2.1-2c0-0.5,0-1,0-1.5v-0.3l0-1.1
			l4.3-0.1c0,0.4,0,0.8,0,1.1c0,0.6,0,1.2,0,1.8C775,442.9,774.2,443.7,772.8,443.8z M778,468.2c-0.2,0.5-0.4,0.9-0.8,1.2
			c-0.4,0.3-0.6,0.2-0.6-0.3l0-2.1h0c0-0.7,0-1.4,0-2.1c0-0.4,0.1-0.6,0.5-0.7c0.4-0.1,0.7-0.2,1-0.3c0.4-0.1,0.5,0,0.5,0.4
			C778.6,465.7,778.5,466.9,778,468.2z M779.5,455.8c-0.1,0.5-0.2,1.1-0.8,1.1c-0.7,0-0.7-0.7-0.8-1.2c-0.2-1-0.3-2-0.3-3.1
			c0-0.3,0-0.8,0-1.3c0-0.5,0.1-0.7,0.6-0.7c0.5,0,0.9-0.1,1.3-0.2c0.4-0.1,0.6,0,0.5,0.4C780,452.5,780,454.2,779.5,455.8z
			 M780.1,443.1c-0.6,0.8-1.7,0.8-2.3-0.1c-0.3-0.4-0.5-0.9-0.5-1.5c0-0.6,0-1.1,0-1.7c0-0.4,0-0.8,0-1.1l3.3,0l0,1.2l0,1.8
			C780.7,442.1,780.5,442.7,780.1,443.1z M784.5,455.2c-0.1,0.4-0.1,0.9-0.6,1c-0.5,0-0.5-0.6-0.6-1c-0.2-0.7-0.1-1.5-0.1-2.2
			c0-0.9,0.1-1.8,0.1-2.6c0-0.7,0.6-0.6,1-0.7c0.5,0,0.4,0.4,0.4,0.6C784.7,452,784.8,453.6,784.5,455.2z M785.7,441.4
			c0,1-0.6,1.8-1.4,1.8c-0.7,0-1.3-0.7-1.3-1.8c0-0.5,0-1,0-1.6c0-0.4,0-0.8,0-1.2l2.8,0c0,0.4,0,0.8,0,1.2
			C785.8,440.4,785.8,440.9,785.7,441.4z M788.5,449.3c-0.1,1.5-0.1,3.1-0.5,4.6c-0.1,0.3-0.1,0.7-0.5,0.7c-0.4,0-0.4-0.4-0.4-0.7
			c0-0.2,0-0.4,0-0.6c0-1.2,0-2.5,0.2-3.7c0-0.4,0.8-0.8,1.1-0.6C788.6,449,788.6,449.2,788.5,449.3z M789.2,441.3
			c-0.2,0.5-0.4,1-1.1,1c-0.6,0-0.8-0.5-1-0.9c-0.1-0.2-0.1-0.5-0.1-0.7c0-0.3,0-0.6,0-0.9c0-0.4,0-0.8,0-1.2l2.2,0l0,1.3l0,0.9
			C789.3,440.9,789.3,441.1,789.2,441.3z M412.1,423.6l61.2-55.1c0.2-0.2,0.6-0.1,0.6,0.2l1.9,18.6c0,0.1,0.1,0.2,0.2,0.3l25.3,16.1
			c0.3,0.2,0.7-0.2,0.5-0.5L485.7,375c-0.1-0.1-0.1-0.3,0-0.4l16.4-19.2c0.2-0.2,0.5-0.2,0.6,0.1l18.8,46.5c0.1,0.2,0.4,0.3,0.6,0.2
			l10.3-9c0.1-0.1,0.2-0.3,0.1-0.5l-27.7-40.2c-0.1-0.1-0.1-0.3,0-0.5l42.5-47.7c0.2-0.2,0.6-0.1,0.6,0.2l12.8,52.2
			c0,0.1,0.1,0.2,0.2,0.3l75.1,33.2c0.1,0,0.3,0,0.4,0l16.6-12.5c0.2-0.2,0.5-0.1,0.6,0.2l4.6,12.3c0,0.1,0.1,0.2,0.2,0.2l36.8,15.4
			c0.4,0.2,0.7-0.4,0.4-0.6l-14.4-12.5c-0.2-0.1-0.2-0.4,0-0.5l27.9-28.8c0.2-0.2,0.4-0.2,0.6,0l31,35.8c0.2,0.3,0.7,0.1,0.7-0.3
			v-26c0-0.1,0.1-0.3,0.2-0.3l14.6-9.2c0.2-0.1,0.4-0.1,0.5,0.1l41.1,57.8L412.1,423.6z M804.9,428.8L804.9,428.8
			c-0.1,0,0-0.1,0-0.1C804.9,428.7,804.9,428.7,804.9,428.8z"/>
		<g>
			<path class="st4" d="M402.7,291.2l-10,18.2l-28-15.5l9.9-18l4.2,2.3l-7.2,13l7.6,4.2L385,285l4.1,2.2l-5.8,10.4l7.8,4.3l7.3-13.2
				L402.7,291.2z"/>
			<path class="st4" d="M418.7,269l-4,5.4l-14.4-1.7l5.8,13.5l-3.2,4.3l-7.5-18l-17.5-2l3.9-5.4l12.1,1.5l-4.9-11.3l3.2-4.4
				l6.6,15.8L418.7,269z"/>
			<path class="st4" d="M424.6,262.8l-4,4.2l-23.2-22.1l9-9.5c2.6-2.7,5.2-4.1,7.8-4.1c2.6,0,4.8,0.9,6.7,2.6c2.1,2,3.2,4.4,3.1,7
				c0,2.7-1.1,5.1-3.2,7.3l-5.5,5.8L424.6,262.8z M411.8,250.7l4.7-4.9c1.2-1.3,1.8-2.6,1.9-3.9c0-1.3-0.5-2.4-1.6-3.4
				c-1-0.9-2.1-1.4-3.3-1.4s-2.7,0.8-4.3,2.4l-4.3,4.6L411.8,250.7z"/>
			<path class="st4" d="M455.4,234.8l-15.2,12.5l-20.2-24.8l4.7-3.8l16.9,20.7l10.5-8.6L455.4,234.8z"/>
			<path class="st4" d="M467.5,227.5c-3.6,2.2-7.3,2.6-11,1.2s-6.8-4.2-9.3-8.1c-2.5-4-3.5-7.9-3-11.9c0.5-4,2.5-7.1,6-9.3
				c3.5-2.2,7.1-2.6,10.8-1.2c3.7,1.4,6.8,4.1,9.3,8.1c2.6,4.2,3.7,8.2,3.1,12.1C473.1,222.3,471,225.3,467.5,227.5z M465.1,223.6
				c1.8-1.1,2.8-2.8,3.1-5c0.3-2.2-0.7-5.2-3.1-9.1c-1.9-3.1-4-5.2-6.1-6.4c-2.1-1.1-4.2-1-6.3,0.3c-4.2,2.6-4.2,7.3,0,14
				c2,3.3,4.1,5.4,6.2,6.4C461.1,224.9,463.1,224.8,465.1,223.6z"/>
			<path class="st4" d="M505.6,208.1l-5.6,2.4l-9.8-10.1l-7.4,3.2l5.2,12.1l-5.3,2.3L470,188.6l12.7-5.5c3.5-1.5,6.5-1.9,8.8-1
				s4.1,2.6,5.2,5.1c1.6,3.8,1,7.1-1.9,10.1L505.6,208.1z M481,199.4l6.6-2.8c1.9-0.8,3.2-1.8,3.7-3c0.6-1.2,0.6-2.5,0-3.9
				c-0.6-1.3-1.5-2.1-2.7-2.5c-1.3-0.4-2.7-0.2-4.4,0.5l-7,3L481,199.4z"/>
			<path class="st4" d="M530.3,201.2l-20,5.5l-8.5-30.8l19.8-5.5l1.3,4.6l-14.3,3.9l2.3,8.4l11.5-3.2l1.2,4.5l-11.5,3.2l2.4,8.6
				l14.5-4L530.3,201.2z"/>
			<path class="st4" d="M558.8,197.2l-6,0.8l-6.6-12.4l-8,1.1l1.7,13l-5.7,0.8l-4.2-31.7l13.8-1.8c3.8-0.5,6.8,0,8.8,1.5
				c2,1.5,3.2,3.6,3.6,6.4c0.5,4.1-1,7.1-4.6,9.2L558.8,197.2z M537.5,182l7.1-0.9c2.1-0.3,3.5-0.9,4.4-1.9c0.9-1,1.2-2.3,1-3.8
				c-0.2-1.4-0.8-2.5-1.9-3.2c-1.1-0.7-2.5-1-4.3-0.7l-7.6,1L537.5,182z"/>
			<path class="st4" d="M560.4,189.2l5.6-1.1c0.6,3.2,3.2,4.8,7.7,4.9c2,0,3.6-0.3,4.7-1.1c1.1-0.8,1.7-1.8,1.7-3
				c0-0.9-0.2-1.7-0.7-2.4c-0.5-0.8-1.5-1.4-3.2-1.8l-6.1-1.7c-2.1-0.6-3.6-1.2-4.6-1.9c-1-0.7-1.8-1.7-2.4-3
				c-0.6-1.3-0.9-2.6-0.8-4.1c0-2.9,1.1-5.1,3.3-6.8c2.2-1.7,4.9-2.5,8.2-2.5c2.7,0,5.2,0.7,7.3,1.9c2.1,1.2,3.5,3,4.1,5.2l-5.5,1.3
				c-0.8-2.4-2.8-3.7-5.8-3.7c-1.8,0-3.2,0.3-4.1,1.1c-1,0.7-1.4,1.7-1.5,2.8c0,1.8,1.4,3.1,4.4,3.9l5.4,1.4
				c3.3,0.9,5.5,2.1,6.6,3.8c1.1,1.6,1.6,3.4,1.6,5.4c-0.1,3.1-1.3,5.6-3.7,7.4c-2.4,1.8-5.5,2.6-9.2,2.6c-3.2-0.1-5.9-0.8-8.3-2.1
				S561.1,192.1,560.4,189.2z"/>
			<path class="st4" d="M640.5,191.8l-4.4,15.8l-2.5-0.7l-0.5-4.6c-2.6,2.6-5.9,3.4-9.6,2.3c-4.2-1.2-6.9-3.6-8.1-7.4
				c-1.2-3.8-1.2-7.7,0-12c1.2-4.4,3.4-7.9,6.6-10.3c3.2-2.4,6.8-3.1,11-1.9c3.1,0.9,5.4,2.5,6.9,4.8c1.5,2.4,2.1,4.9,1.9,7.8
				l-5.1-0.5c0.1-4-1.5-6.5-4.9-7.4c-2.2-0.6-4.2-0.2-6.1,1.2s-3.3,3.9-4.3,7.6c-2.2,7.8-0.8,12.4,4.1,13.7c1.9,0.5,3.6,0.3,5.3-0.7
				c1.6-1,2.7-2.5,3.3-4.7l-6.4-1.8l1.2-4.5L640.5,191.8z"/>
			<path class="st4" d="M660.3,217.9l-19.1-8.3l12.7-29.4l18.9,8.2l-1.9,4.4l-13.6-5.9l-3.4,8l10.9,4.7l-1.8,4.3l-10.9-4.7l-3.6,8.2
				l13.8,6L660.3,217.9z"/>
			<path class="st4" d="M673.5,225.5l-5.3-3.1l13.6-23.4l-7.4-4.3l2.5-4.3l20,11.7l-2.5,4.3l-7.4-4.3L673.5,225.5z"/>
			<path class="st4" d="M701.1,244.9l-4.9-3.7l2.5-7.6l-9.9-7.4l-6.6,4.6l-3.9-2.9l27.6-19.3l5.7,4.2L701.1,244.9z M700.2,228.9
				l4.8-14.2l-12.3,8.7L700.2,228.9z"/>
			<path class="st4" d="M751.6,250.7l-29,16.1l-4.2-4.3l12.5-20.9L710,253.6l-4.1-4.3l16.9-28.5l4.3,4.4l-12.5,20.7l20.8-12.1
				l4.1,4.2l-12.3,20.8l21-11.8L751.6,250.7z"/>
			<path class="st4" d="M743.1,294.9l-3.5-5.1l4.8-6.4l-7-10.1l-7.7,2.3l-2.8-4l32.3-9.5l4.1,5.8L743.1,294.9z M747.3,279.5l9.1-12
				l-14.4,4.3L747.3,279.5z"/>
			<path class="st4" d="M749,306.5l-2.9-5.4l11.9-6.4l11.2-18.3l3.3,6.2l-8,12.9l15.1,0.2l2.6,4.9l-21.2-0.4L749,306.5z"/>
		</g>
		<circle cx="807" cy="429" r="0"/>
		<path class="st3" d="M340.5,428.8v0.4c0,0.2-0.1,0.3-0.3,0.3h-1.4c-0.2,0-0.3-0.1-0.3-0.3v-0.4c0-0.1,0-0.1,0.1-0.2
			c0-0.1,0.1-0.1,0.2-0.1h1.4c0.1,0,0.3,0.1,0.3,0.2C340.5,428.7,340.5,428.8,340.5,428.8C340.5,428.8,340.5,428.8,340.5,428.8z"/>
		<circle class="st4" cx="473" cy="293" r="13"/>
	</g>
	<g id="Birds">
		<path class="st5" d="M600.5,317c0,0,6.3-5.4,15.2,0c0,0,6.3-4.5,14.3,0"/>
		<path class="st5" d="M623.5,309.5c0,0,4.8-4.1,11.6,0c0,0,4.8-3.4,10.9,0"/>
		<path class="st5" d="M627,323.4c0,0,7.4-6.4,18,0c0,0,7.4-5.3,17,0"/>
	</g>
</g>
<g id="Layer_3">
	<path class="st4" d="M340.2,435H340c0,0,0,0,0,0l-1-5c0,0,0.2-0.1,0.4-0.4C339.7,431.4,339.9,433.2,340.2,435z"/>
	<path class="st4" d="M340.5,428.8v0.4c0,0.2-0.1,0.3-0.3,0.3h-0.6C339.8,429.3,340.1,429.1,340.5,428.8c-0.1,0,0-0.1,0-0.1
		C340.5,428.7,340.5,428.8,340.5,428.8C340.5,428.8,340.5,428.8,340.5,428.8z"/>
	<path d="M804.9,428.6c0,0,0,0.1,0,0.1h-0.1C804.8,428.7,804.9,428.7,804.9,428.6z"/>
</g>
</svg>
