<svg xmlns="http://www.w3.org/2000/svg" viewBox="0 0 1366 768"><defs><style>.cls-1,.cls-2,.cls-6{fill:none;}.cls-1,.cls-3{stroke:#000;}.cls-1,.cls-2,.cls-3,.cls-4,.cls-6{stroke-miterlimit:10;}.cls-1,.cls-2{stroke-width:2px;}.cls-2,.cls-4,.cls-6{stroke:#f2f2f2;}.cls-3,.cls-4{stroke-width:0.5px;}.cls-4,.cls-5{fill:#f2f2f2;}</style></defs><title>Artboard 1grey</title><g id="Layer_2" data-name="Layer 2"><path class="cls-1" d="M339.23,428l.06.5a2.51,2.51,0,0,0,0,.27c0,.25.05.49.09.73,0,0,0,.08,0,.12"/><path class="cls-2" d="M339,428c17.17,116.9,115.19,206.5,233.54,206.5,118.2,0,216.13-89.38,233.46-206.08"/><path class="cls-1" d="M805,428c0,.21,0,.42-.08.63"/></g><g id="Layer_1" data-name="Layer 1"><path class="cls-3" d="M340.48,428.71a.31.31,0,0,0-.29-.21h-1.38a.3.3,0,0,0-.24.12.44.44,0,0,0,.35.15h1.57A.13.13,0,0,0,340.48,428.71Z"/><path class="cls-3" d="M804.81,428.77h.09s0-.09,0-.14A.76.76,0,0,0,804.81,428.77Z"/><path class="cls-4" d="M806,428a.11.11,0,0,0-.08,0l-34.25-48.65-13.53-20.78a.37.37,0,0,0-.52-.11l-20.79,14a.35.35,0,0,1-.37,0l-26.35-12.06a.41.41,0,0,0-.42.07l-31.85,30.25a.38.38,0,0,1-.48,0l-22.87-16a.36.36,0,0,0-.43,0l-17.38,12.59a.37.37,0,0,1-.48,0l-87.36-85.94a.37.37,0,0,0-.55,0l-64.68,73.59a.38.38,0,0,1-.56,0l-8.39-9a.39.39,0,0,0-.53,0l-65.42,56.76a.38.38,0,0,1-.44,0l-40-24.88a.37.37,0,0,0-.47.06c-2,2.06-17.63,18.31-25.21,26.46-1.63,1.75-5.09,3.13-4.09,4.13a.41.41,0,0,0,.07.12.3.3,0,0,1,.24-.12h1.38a.31.31,0,0,1,.29.21.13.13,0,0,1,0,.06.06.06,0,0,1,0,0v.38a.31.31,0,0,1-.31.31h-.62l-.14.12q.34,2.7.75,5.38h2.32l0,6.4h2.61l0,6.24,4.7,0,0,7.81,4.89,0,0,7.55h4.7l0,7.72,5,0-.07,7.63h4.89l-.16,7.72,6.73,0,0,11,24.07-.09,0-11,6.73,0-.2-7.72,4.89,0-.13-7.64h5l0-7.73h4.71l0-7.55,4.89,0,0-7.81h4.7l0-6.24,14,0,0,2,1.21,0c0,1-.11,2-.17,3-.09,1.61-.21,3.22-.29,4.83a.5.5,0,0,1-.45.55,1.24,1.24,0,0,0-.1,2.35.43.43,0,0,1,.35.5c-.08,1.24-.13,2.46-.2,3.7,0,.71-.1,1.41-.13,2.11a.4.4,0,0,1-.36.42,1.29,1.29,0,0,0-1,1.15,1.25,1.25,0,0,0,.87,1.26c.24.09.27.21.28.43,0,.83-.13,1.64-.14,2.46,0,1.14-.15,2.27-.16,3.41a.39.39,0,0,1-.36.42,1.23,1.23,0,0,0-1,1.2,1.26,1.26,0,0,0,1,1.23c.2.06.23.15.22.33-.09,1.25-.16,2.5-.24,3.73,0,.73-.08,1.44-.12,2.16a.45.45,0,0,1-.39.49,1.18,1.18,0,0,0-1,1.2,1.24,1.24,0,0,0,.93,1.2.29.29,0,0,1,.24.34c-.12,2-.23,4-.34,6a.35.35,0,0,1-.29.38,1.31,1.31,0,0,0-1.1,1.22,1.26,1.26,0,0,0,.91,1.23.41.41,0,0,1,.29.45q-.2,2.94-.36,5.88c0,.23-.06.33-.33.37a1.21,1.21,0,0,0-1,1.09,1.14,1.14,0,0,0,.73,1.25c.45.15.45.4.42.73-.12,1.86-.24,3.7-.35,5.57,0,.28-.07.44-.41.52a1.19,1.19,0,0,0-.93,1.37,1.25,1.25,0,0,0,1.18,1.07c1.07.07,2.14.14,3.22.18.58,0,.6,0,.57.6-.08.89-.12,1.79-.18,2.69-.07,1.2-.16,2.39-.22,3.58,0,.25-.12.35-.36.41a1.28,1.28,0,0,0-1,1.16,1.34,1.34,0,0,0,1.4,1.35c1.31,0,2.61.11,3.93.18l5,.28,2,.12c-.06.75-.12,1.5-.17,2.26a.22.22,0,0,1-.11.18,1.64,1.64,0,0,1-1.35.19,6.26,6.26,0,0,1-1.09-.49,5.38,5.38,0,0,0-.81-.36,1.66,1.66,0,0,0-1.61.18.16.16,0,0,0-.09.15c-.11,1.25-.23,2.48-.33,3.72,0,0,0,.07,0,.08s.07,0,.1,0a1.59,1.59,0,0,1,1.2-.26,3.15,3.15,0,0,1,.83.29c.39.19.77.42,1.19.58a1.88,1.88,0,0,0,1,.13,1.8,1.8,0,0,0,.7-.33.31.31,0,0,0,0,.11.52.52,0,0,0,.59.37.59.59,0,0,0,.38-.44c.08-1.13.17-2.26.26-3.39.07-1,.14-1.91.22-2.88l.56,0c1.32.07,2.62.14,3.93.19a1.24,1.24,0,0,0,1.33-1.09,1.22,1.22,0,0,0-.89-1.36c-.23-.07-.29-.16-.27-.37.14-2.19.27-4.36.39-6.53,0-.29.1-.38.41-.36,1.14.08,2.28.18,3.44.16a1.2,1.2,0,0,0,1.28-1,1.17,1.17,0,0,0-.79-1.41.44.44,0,0,1-.33-.52c.08-1.25.13-2.48.2-3.73,0-.69.1-1.39.14-2.08,0-.24.11-.36.36-.42a1.27,1.27,0,0,0,1-1.11,1.23,1.23,0,0,0-.87-1.27.38.38,0,0,1-.29-.46,13,13,0,0,1,.32-3,.14.14,0,0,0-.06-.08c-.12-.12-.07-.28-.06-.41.06-.8.1-1.58.11-2.37,0-.25.07-.39.36-.44a1.24,1.24,0,0,0,.09-2.43c-.21-.06-.27-.14-.25-.35q.18-2.91.35-5.84c0-.25,0-.41.34-.49A1.25,1.25,0,0,0,468,480c-.19-.08-.24-.16-.23-.35.13-2,.24-4,.35-5.92a.37.37,0,0,1,.33-.42,1.29,1.29,0,0,0,1.06-1.16,1.25,1.25,0,0,0-.9-1.25c-.27-.09-.31-.25-.29-.49.06-.76.13-1.52.17-2.29.07-1.11.13-2.24.16-3.36a.54.54,0,0,1,.48-.61A1.25,1.25,0,0,0,470,463a1.16,1.16,0,0,0-.75-1.1c-.49-.14-.47-.43-.44-.77.12-1.86.25-3.71.35-5.56,0-.26.08-.41.37-.47a1.21,1.21,0,0,0,1-1.1,1.19,1.19,0,0,0-.82-1.29.43.43,0,0,1-.33-.5c.08-1.29.15-2.58.24-3.88.11-1.87.21-3.74.32-5.61l3.17,0c2.19,4,7.43,13.28,11.63,18.58l.1,7.14,2.07,0s4.27,7,6.9,18.64l-1.28.68,0,3.15,1.38,0v1l1.1,0s6.05,44.89,4.89,56.44c0,0-1.27.11-1.51.45l0,2.8a5.72,5.72,0,0,0,1,1.65l0,.71h-.46l0,.86a6.33,6.33,0,0,0,2.1,1v1.33h.49l0,3.76h.33l.18,4.47.09-4.47h.32l0-3.75h.5l0-1.34a6,6,0,0,0,2.06-1v-.85l-.44,0v-.73a5.69,5.69,0,0,0,1-1.67l0-2.8c-.25-.34-1.5-.41-1.5-.41-1.48-11.53,3.37-56.55,3.37-56.55h1.09v-1l1.38,0,0-3.14-1.3-.65C511,475.09,515,468,515,468l2.07,0-.09-7.13c4-5.4,9.06-14.84,11.14-18.88l2.24,0,0,3.64a.52.52,0,0,0,.54.49h.77a.53.53,0,0,1,.55.47l1.32,25.71a1.34,1.34,0,0,0,1.23,1.35s.07,0,.07.05L535,476s0,.18.12.17.12-.14.12-.16h0l0-2.37a.06.06,0,0,1,.05-.06,1.33,1.33,0,0,0,1.2-1.38l.67-26.21,5.2-.07,1.05,19.82a1,1,0,0,0,1,1l.07,1.87s0,.13.09.13.1-.1.09-.13l0-1.87a1,1,0,0,0,1-1.06h0l.53-19.83,4.7-.06.19,14.07h.41l0,2.36,2.63,0,0-2.17,3.17,0,0,3.89h1s-.25,2,3,3.2a.07.07,0,0,1,0,0c0,.47.46,5.75.76,0h0a5.13,5.13,0,0,0,2.54-1.9H565v.59h1.16v.3s-4.24,3.13-3.75,7.14,5.62,7,5.62,7,6.48,4.07,6.78,4.86c0,0,.1,4.68.39,4.87h.12c.27-.2.25-4.87.25-4.87.28-.8,6.63-5,6.63-5s5.06-3.09,5.44-7.11-3.93-7-3.93-7v-.3l1.14,0V465H585a5,5,0,0,0,2.57,1.84s0,0,0,0c.44,5.71.72.42.75,0a0,0,0,0,1,0,0c3.2-1.35,2.89-3.29,2.89-3.29h1l0-3.89,3.17,0,0,2.17,2.63,0,0-2.35h.42l-.19-14.12,4.62-.06,1.06,19.85a1,1,0,0,0,1,1l.08,1.86s0,.14.09.14.09-.12.09-.14h0l0-1.86a1,1,0,0,0,1-1.06h0l.54-19.87L612,445l1.35,26.22a1.34,1.34,0,0,0,1.24,1.36.06.06,0,0,1,0,.06l.1,2.36s0,.17.12.17.12-.14.12-.16h0l0-2.37s0,0,.07-.06a1.32,1.32,0,0,0,1.19-1.38l.65-25.77a.52.52,0,0,1,.53-.49h.73a.51.51,0,0,0,.53-.5l0-3.59,1.22,0v.9l2.92,0,0,2.06,3,0,.25,19.36,2.28,0,.33,25,3.17,0,.39,29.15,2.4,0,.42,30.84,2.52,0,.22,15.36,1.13,0,.27,20.08h.88l.14,10.16h1.14l.26,19.1.75,0-.16-12.2,1.52,0-.32-23.59h1.4l-.11-7.75h1.52l-.13-9.8,1.77,0L647.46,526l2.41,0-.4-29.51,2.67,0L651.79,470l2.91,0-.36-27,3.16,0,0-1.93,2.9,0v-.77l13.84-.18a1.23,1.23,0,0,0,0,.16c1.87,9.16,8.08,42.24,3.53,62.66,0,0-37.72,6.62-4.86,16.12,0,0-6.7,5.5,8.36,6.38l1.6,20.78.24,3,1.21-23.83c15-1.27,8.18-6.6,8.18-6.6,32.59-10.35-5.28-16-5.28-16-5.07-20.18.17-53.17,1.83-62.58l.06-.31,6.71-.08c0,.12,0,.24,0,.36.08,1.48.17,3,.24,4.43.2,4.19.43,8.39.58,12.58a6.43,6.43,0,0,0,2.13,4.59,15.85,15.85,0,0,0,5.93,3.35c6.19,2.17,12.68,2.83,19.19,3.25q3.2.2,6.39.25c2.06,0,4.13,0,6.19,0a.59.59,0,0,0,.68-.62c0-.6.18-1.19.22-1.78s.27-.71.81-.7c1.46,0,1.28-.13,1.3,1.17a.61.61,0,0,1,0,.19c0,.41.18.58.61.56s1.13,0,1.69,0c1.37,0,1.38,0,1.39-1.35,0-.43.1-.64.59-.63,1.06,0,2.11,0,3.17,0a1.09,1.09,0,0,1,.83.31c.83.77,1.67,1.51,2.49,2.28a1.47,1.47,0,0,0,1.14.43,35.34,35.34,0,0,0,3.55-.28.79.79,0,0,1,1.05.66c.37,1.35.81,2.69,1.22,4a4.74,4.74,0,0,0,.87,1.79,1.3,1.3,0,0,1,.07,1.78,1.08,1.08,0,0,0-.2.8,37,37,0,0,1,.17,3.93,2.44,2.44,0,0,0,2,1.9.84.84,0,0,1,.93.62c.76,1.94,1.62,3.84,2.32,5.79a4.67,4.67,0,0,0,2.35,2.9.76.76,0,0,1,.47.85,1.19,1.19,0,0,0,.67,1.23,5.57,5.57,0,0,1,.79.61,1.14,1.14,0,0,0,1.33.21,70.8,70.8,0,0,0,7.48-3.08,41.05,41.05,0,0,0,11.72-7.92,15.31,15.31,0,0,0,4.12-6.73.91.91,0,0,0-.38-1.17c-1.08-.64-1-.71-.37-1.93.14-.29.32-.57.47-.85a1.39,1.39,0,0,0,.22-1,15,15,0,0,1-.26-2.76c-.12-1.41-.25-2.81.67-4.1a4.42,4.42,0,0,0,.62-1.83,2.94,2.94,0,0,0-.24-2.08,2,2,0,0,1-.27-1.11c0-.54,0-1.08,0-1.61-.08-1.24-.11-2.46,1-3.37a.71.71,0,0,0,.11-.17,2.47,2.47,0,0,0-.15-3.13,1.11,1.11,0,0,1-.22-.78c0-1.2,0-2.41-.07-3.62,0-.54-.07-1.07.53-1.42a.68.68,0,0,0,.23-.44,13.1,13.1,0,0,0,.18-2.5c0-.81-.53-1.47-.56-2.3,0-.49,0-1,0-1.48h.39l0-4.79H804a0,0,0,0,0,0,0l.2-1c-.07.48-.14,1-.22,1.45a6.6,6.6,0,0,0,2-3.27C806.65,430.06,806.68,428.19,806,428ZM382.53,485.26l-9.16-44h3.93l6.34,44ZM346.16,424l21.54-22.59a.39.39,0,0,1,.58,0l17,22.3Zm39.27,66.1,0-4.45,5,0,0,4.45Zm7.89-4.88h-1.11l6-44,3.92,0Zm52.1-3.66c0-.19.11-.24.29-.23l1.93.1c.23,0,.22.18.21.32,0,.72-.08,1.44-.14,2.15s-.06,1.12-.1,1.68a1.21,1.21,0,0,1-1.77,1,1.1,1.1,0,0,1-.66-1C445.26,484.16,445.34,482.87,445.42,481.56Zm11.77-21.72a1.18,1.18,0,0,1-1.49-1c0-.56,0-1.13.07-1.69s.08-1.31.11-2,0-.69.62-.68l1.49.06c.26,0,.39.08.37.37-.1,1.24-.17,2.47-.24,3.7A1.25,1.25,0,0,1,457.19,459.84Zm.62,4.12-.24,3.91a1.18,1.18,0,0,1-1.26,1.11,1.15,1.15,0,0,1-1.17-1.16v-.3c.08-1.16.17-2.4.24-3.64,0-.25.13-.34.37-.32l1.83.12C457.78,463.69,457.82,463.79,457.81,464ZM456.93,443c-.11,1.82-.22,3.63-.36,5.45a1.79,1.79,0,0,1-1.91,1.52,1.83,1.83,0,0,1-1.74-1.58c0-1,.1-2,.15-3,0-.75.11-1.5.15-2.26a.74.74,0,0,1,0-.17c.06-.13.16-.18.36-.18.49,0,1,0,1.46,0s1,0,1.54,0c.17,0,.28,0,.32.17A.33.33,0,0,1,456.93,443Zm-3.38,11.27c.25,0,.35.08.34.32-.08,1.31-.11,2.63-.21,4a1.16,1.16,0,0,1-1.37,1,1.13,1.13,0,0,1-1.07-1.21,2.8,2.8,0,0,0,0-.29h0c.08-1.16.13-2.32.2-3.47,0-.43.07-.45.53-.41Zm-1.73,14.46c-.7,0-1.12-.57-1.11-1.54s.16-2.35.24-3.59c0-.23.11-.33.34-.31l1.86.12c.18,0,.23.1.22.26-.08,1.29-.15,2.58-.23,3.87A1.2,1.2,0,0,1,451.82,468.76Zm1,4.13c-.08,1.32-.15,2.63-.25,3.94a1.22,1.22,0,0,1-1.27,1.05c-.71,0-1.14-.54-1.15-1.45.07-1.1.15-2.35.22-3.61,0-.28.12-.37.42-.35l1.75.1C452.77,472.57,452.85,472.68,452.83,472.89ZM451.17,447c0,.39,0,.77-.07,1.15a1.82,1.82,0,0,1-1.95,1.61,1.76,1.76,0,0,1-1.7-1.81c0-1.58.16-3.15.24-4.73a.38.38,0,0,1,0-.16.34.34,0,0,1,.35-.18h1.54q.75,0,1.5,0c.18,0,.28,0,.3.18a.18.18,0,0,1,0,.11C451.32,444.37,451.26,445.66,451.17,447Zm-1.87,7.12c.2,0,.17.15.17.26-.06.94-.11,1.88-.16,2.8,0,.38,0,.75-.08,1.11a1.19,1.19,0,0,1-1.35,1.15,1.15,1.15,0,0,1-1-1.3v-.16c.06-1.25.2-2.48.2-3.72,0-.18.07-.26.27-.26Zm-2.42,9,1.83.12c.2,0,.25.09.23.28-.08,1.27-.15,2.54-.23,3.82a1.24,1.24,0,0,1-1.28,1.19,1.19,1.19,0,0,1-1.17-1.24c0-.1,0-.19,0-.38,0-1.08.13-2.25.18-3.42C446.48,463.21,446.59,463.07,446.88,463.1Zm-.26,9.14c.48,0,1,0,1.45.06.23,0,.32.08.32.34-.1,1.24-.16,2.51-.23,3.76a1.25,1.25,0,0,1-1.23,1.24,1.23,1.23,0,0,1-1.22-1.26c.11-1.31.18-2.62.25-3.94,0-.18.08-.26.28-.22S446.48,472.23,446.62,472.24Zm0,30.18c0,.51,0,1-.08,1.54a1.26,1.26,0,0,1-1.27,1,1.21,1.21,0,0,1-1.17-1.23c0-1.11.14-2.22.21-3.33,0-.07,0-.14,0-.22,0-.63,0-.63.79-.62l1.3.06c.27,0,.37.15.35.39C446.69,500.84,446.67,501.63,446.6,502.42Zm.44-7.57a1.17,1.17,0,0,1-1.27,1,1.19,1.19,0,0,1-1.15-1.15c0-.83.1-1.65.14-2.48,0-.45.1-.9.1-1.37s.13-.48.47-.42a.5.5,0,0,0,.13,0l1.45.06c.29,0,.41.12.39.42C447.21,492.25,447.15,493.55,447,494.85Zm2.78,17.71c0,.44-.06.89-.1,1.33a1.2,1.2,0,0,1-2.38-.05c0-.16,0-.31,0-.41.09-1.45.18-2.85.27-4.25,0-.19.07-.28.27-.27l1.83.09c.25,0,.34.13.33.37C450,510.44,449.89,511.5,449.82,512.56Zm1.12-8.37a1.19,1.19,0,0,1-1.25,1.06,1.15,1.15,0,0,1-1.13-1.16c0-.14,0-.28,0-.38.07-1.25.13-2.46.2-3.66,0-.2.06-.27.29-.26.59,0,1.19.08,1.79.1.28,0,.37.1.36.36C451.1,501.57,451,502.88,450.94,504.19Zm.52-9a1.14,1.14,0,0,1-1.26,1,1.19,1.19,0,0,1-1.14-1.2c.07-1.32.17-2.65.24-4,0-.35.29-.21.47-.26.55,0,1.1.09,1.65.11.23,0,.33.1.31.33C451.64,492.46,451.58,493.79,451.46,495.14ZM452,486a1.23,1.23,0,0,1-2.43-.29q.12-1.91.24-3.87c0-.22.13-.25.32-.24l1.82.11c.25,0,.31.1.29.31C452.2,483.3,452.13,484.63,452,486Zm3,23.63c0,.81-.09,1.62-.14,2.44,0,.6-.08,1.21-.11,1.82a1.19,1.19,0,0,1-1.19,1.31,1.11,1.11,0,0,1-1.25-1.13v-.29h0c.09-1.44.18-2.86.26-4.29,0-.24.11-.32.34-.3l1.87.12C455.07,509.27,455.08,509.43,455.07,509.59Zm.3-5.09a1.17,1.17,0,0,1-1.17,1,1.18,1.18,0,0,1-1.19-.91c0-.21,0-.43,0-.65h0c.07-1.16.14-2.34.2-3.51,0-.25.12-.37.4-.35l1.64.07c.31,0,.42.15.4.44C455.52,501.88,455.46,503.19,455.37,504.5Zm.8-12.89c-.08,1.22-.15,2.44-.25,3.66a1.18,1.18,0,0,1-1.33,1.07,1.21,1.21,0,0,1-1.1-1.23c0-.71.09-1.44.12-2.15,0-.56.11-1.12.11-1.68,0-.3.13-.37.4-.35l1.76.11C456.35,491.07,456.09,491.41,456.17,491.61Zm.28-5.35a1.2,1.2,0,0,1-1.23,1A1.21,1.21,0,0,1,454,486c.06-1.33.15-2.66.23-4,0-.2.09-.25.27-.23a2.89,2.89,0,0,0,.41,0c.49,0,1,.06,1.46.06.24,0,.31.1.3.3C456.63,483.55,456.56,484.91,456.45,486.26ZM457,477a1.21,1.21,0,0,1-2.42,0c0-.83.1-1.67.14-2.51,0-.41.08-.8.09-1.21,0-.63,0-.57.65-.56l1.41.07c.29,0,.4.14.38.43C457.17,474.47,457.1,475.72,457,477Zm.6,23.6c0-.21.1-.31.33-.3l1.93.11c.18,0,.21.09.2.24-.08,1.28-.13,2.57-.22,3.87a1.24,1.24,0,0,1-.91,1.15,1.28,1.28,0,0,1-1.33-.45c-.17-.23-.19-.35-.19-1.31S457.55,501.78,457.61,500.6Zm2.55,9.28c0,.81-.09,1.63-.14,2.45,0,.59-.07,1.2-.1,1.82a1.21,1.21,0,0,1-1.19,1.3,1.1,1.1,0,0,1-1.26-1.13V514c.08-1.42.17-2.85.25-4.29,0-.24.11-.32.34-.3l1.87.12C460.17,509.57,460.17,509.72,460.16,509.88Zm.18-14.26a1.2,1.2,0,0,1-2.36,0,3.55,3.55,0,0,1,0-.44c.06-1.28.14-2.47.19-3.65,0-.26.12-.35.4-.33.58.06,1.15.08,1.73.09.24,0,.33.12.31.34C460.52,492.93,460.45,494.27,460.34,495.62Zm1.88-48.74c0,.54-.08,1.06-.11,1.59a1.72,1.72,0,0,1-1,1.62,1.86,1.86,0,0,1-2.67-2c.08-1.35.16-2.68.23-4,0-.35.06-.69.06-1a.27.27,0,0,1,0-.13c0-.12.13-.16.31-.16l1.53,0H462c.2,0,.32,0,.37.16a.29.29,0,0,1,0,.19C462.35,444.31,462.29,445.6,462.22,446.88Zm.25,7.89c.24,0,.32.09.3.33-.08,1.28-.14,2.56-.22,3.83a1.23,1.23,0,0,1-1.24,1.2,1.21,1.21,0,0,1-1.19-1.19c.06-1.27.16-2.53.22-3.81,0-.36.17-.48.53-.43a.71.71,0,0,0,.2,0C461.56,454.72,462,454.75,462.47,454.77Zm-1.56,31.64a1.13,1.13,0,0,1-1.39,1,1.16,1.16,0,0,1-1.05-1.26c.08-1.28.16-2.57.25-3.86,0-.22.08-.29.31-.26.56,0,1.12.06,1.68.08.41,0,.44,0,.43.44C461.06,483.85,461,485.12,460.91,486.41Zm.78-13c0,.8-.09,1.6-.13,2.41a11.57,11.57,0,0,0-.09,1.32,1.27,1.27,0,0,1-1.28,1.24A1.25,1.25,0,0,1,459,477c.09-1.25.18-2.55.25-3.83,0-.22.14-.26.33-.24l1.86.11C461.7,473,461.7,473.22,461.69,473.39Zm-1-4.17a1.15,1.15,0,0,1-1.12-1.18c.09-1.39.16-2.69.24-4,0-.2.12-.24.3-.22.61,0,1.22.08,1.82.09.27,0,.33.13.32.35-.08,1.29-.17,2.6-.26,3.9A1.16,1.16,0,0,1,460.69,469.22Zm3.8,31.85a.53.53,0,0,0,0,.18c-.07,1.16-.12,2.32-.21,3.47a1.21,1.21,0,0,1-2.42.1c0-.59,0-1.17.08-1.76s.08-1.28.12-1.94,0-.61.64-.59.91.07,1.37.08S464.58,500.72,464.49,501.07Zm.34-5.44a1.24,1.24,0,0,1-2.46.11,8.32,8.32,0,0,1,0-1.11c0-.93.12-1.86.17-2.8,0-.42.07-.46.51-.42s.93.07,1.39.09.54,0,.53.54C465,493.24,464.9,494.43,464.83,495.63Zm.51-9a1.21,1.21,0,0,1-1.24,1.12A1.18,1.18,0,0,1,463,486.5v-.28h0l.2-3.62c0-.22.08-.31.31-.31l1.75.09c.31,0,.41.16.39.45C465.49,484.08,465.44,485.35,465.34,486.61Zm.78-13c0,.79-.08,1.6-.14,2.4,0,.49-.06,1-.1,1.47a1.16,1.16,0,0,1-1.19,1.1,1.22,1.22,0,0,1-1.24-1.29c.09-1.27.18-2.53.24-3.8,0-.29.16-.34.4-.32l1.76.11C466.1,473.29,466.14,473.41,466.12,473.61Zm.3-5.14a1.23,1.23,0,0,1-1.25,1,1.25,1.25,0,0,1-1.17-1.33c.08-1.3.17-2.61.25-3.9,0-.2.11-.25.29-.24l1.9.12c.22,0,.25.12.24.29C466.59,465.78,466.53,467.13,466.42,468.47Zm.56-9.22a1.21,1.21,0,0,1-1.21,1.11,1.14,1.14,0,0,1-1.2-1.14c0-.94.08-1.88.13-2.83,0-.28,0-.56,0-.83,0-.62,0-.62.75-.62.42,0,.9.07,1.39.08.27,0,.36.14.34.4C467.14,456.69,467.08,458,467,459.25Zm.71-11.94c0,.47-.07,1-.09,1.44a1.85,1.85,0,1,1-3.7-.07c.07-1.49.18-3,.28-4.48,0-.4.06-.81.07-1.21a.56.56,0,0,1,0-.2c0-.13.17-.18.38-.16s.52,0,.78,0h0c.7,0,1.4,0,2.09,0,.22,0,.35,0,.41.16a.54.54,0,0,1,0,.23C467.87,444.42,467.78,445.86,467.69,447.31ZM504,483.37l-5.86.07-3.06-14.8,11.58-.15Zm-3-26.22h-.9s-14.08,1.07-16-14.63l33-.43C515.62,457.84,501,457.15,501,457.15ZM574.75,456c-3.13,0-3.57-3.22-3.57-3.22l-.11-7.26,7.06-.08.09,7.25S577.87,456,574.75,456ZM700.4,442.82c-.08.28-.13.65-.51.68s-.54-.33-.64-.64a2.35,2.35,0,0,1-.14-.69c0-.68,0-1.36,0-2v-.39q0-.75,0-1.5c0-.81.61-.59,1-.67s.4.36.41.62c0,.49,0,1,0,1.52v.57A10.58,10.58,0,0,1,700.4,442.82Zm1.1-3.12h1.43v.53h0c0,.84.07,1.68,0,2.51,0,.42,0,1-.6,1.09s-.72-.62-.73-1.05c0-.87-.06-1.76-.08-2.65C701.5,440,701.5,439.84,701.5,439.7Zm1.69,13.53c0,.27,0,.71-.37.74s-.36-.39-.44-.65a5.12,5.12,0,0,1-.26-1.06c-.19-1.38-.35-2.77-.48-4.16,0-.23-.26-.68.3-.68s1-.11,1,.6c.08,1.18.26,2.35.23,3.54C703.18,452.12,703.22,452.68,703.19,453.23Zm1.52-9.72a1.57,1.57,0,0,1-.35-1c0-.82,0-1.62,0-2.44,0-.14,0-.29,0-.44l1.72,0v.46l0,2a2.67,2.67,0,0,1-.3,1.3A.56.56,0,0,1,704.71,443.51Zm1.77,11c-.08.27-.19.57-.52.6s-.52-.28-.65-.56a5,5,0,0,1-.38-1.82,18,18,0,0,1,0-3.28c0-.37.14-.44.49-.32.68.23,1.19.52,1.16,1.33,0,.54.07,1.07.1,1.61A7.68,7.68,0,0,1,706.48,454.51Zm1-12.09,0-2.32v-.48l2.49,0v.5c0,.75,0,1.48,0,2.22a2.57,2.57,0,0,1-.4,1.29.91.91,0,0,1-1.6.13A1.94,1.94,0,0,1,707.46,442.42ZM710,454.75c0,.18-.1.36-.16.55s-.19.42-.45.44-.41-.22-.51-.44a8.77,8.77,0,0,1-.56-3c-.08-.79,0-1.59-.06-2.38,0-.38.13-.53.54-.55,1.43-.08,1.46-.07,1.48,1.29v1A13.83,13.83,0,0,1,710,454.75Zm2.16-11a2.49,2.49,0,0,1-.49-1.52l0-2.13c0-.18,0-.35,0-.52l3.41,0v.55c0,.7,0,1.41,0,2.11a2.61,2.61,0,0,1-.38,1.42A1.47,1.47,0,0,1,712.14,443.74Zm2.8,11.21c-.14.53-.26,1.23-1,1.25s-.94-.65-1.08-1.22a16,16,0,0,1-.39-5.43c0-.31.18-.43.51-.46,2.12-.21,2.15-.2,2.19,1.83v.57A13,13,0,0,1,714.94,455Zm1.66-14.88c0-.18,0-.38,0-.57l3.43,0v.6c0,.8,0,1.6,0,2.41a2.51,2.51,0,0,1-.4,1.41,1.48,1.48,0,0,1-2.29.33,2.1,2.1,0,0,1-.74-1.61C716.62,441.76,716.6,440.92,716.6,440.07Zm3.26,15.06a1.92,1.92,0,0,1-.21.46c-.45.75-1.15.78-1.62,0a6.19,6.19,0,0,1-.72-2.79,13.33,13.33,0,0,1,0-1.55h0c0-.56,0-1.12,0-1.68,0-.4.14-.59.58-.59s1.16,0,1.75,0c.42,0,.64.17.66.54A16.15,16.15,0,0,1,719.86,455.13Zm9-10.46c-1.63,0-2.74-.89-2.77-2.29,0-.77,0-1.56,0-2.34v-.66l5.17-.07c0,.24,0,.48,0,.71l0,2.32A2.43,2.43,0,0,1,728.82,444.67Zm10.18-.79a3.45,3.45,0,0,1-3.43.41,2.16,2.16,0,0,1-1.45-2.07l0-2.21v-.74l5.72-.06V440c0,.74,0,1.48,0,2.23A1.82,1.82,0,0,1,739,443.88Zm9.83.14a3.34,3.34,0,0,1-3.75-.35,2.08,2.08,0,0,1-.73-1.54c0-.71,0-1.43,0-2.16,0-.28,0-.55,0-.83l5.72-.07h0c0,.29,0,.58,0,.87,0,.68,0,1.35,0,2A2.09,2.09,0,0,1,748.83,444Zm9.29,14.54a4.84,4.84,0,0,1-.43,1.15,1.28,1.28,0,0,1-2.37.13,6.42,6.42,0,0,1-.91-2.61,13.75,13.75,0,0,1-.21-2.56c0-.58,0-1.16,0-1.74,0-.28.07-.45.42-.42a13.88,13.88,0,0,0,3.09-.1c.52-.07.78.08.78.63A20.84,20.84,0,0,1,758.12,458.56Zm-1.58-14.25a2.42,2.42,0,0,1-2.46-2q0-1.2-.06-2.4c0-.31,0-.62,0-.92l5.09-.07v.17c0,.27,0,.53,0,.8,0,.74,0,1.49,0,2.23C759.14,443.38,758.1,444.24,756.54,444.31Zm9,27.28a2.37,2.37,0,0,1-2.18,1.88c-.21,0-.41,0-.44-.28a18.29,18.29,0,0,1-.42-3.79c0-.73,0-1.22,0-1.72s.17-.55.54-.6c.75-.12,1.51-.22,2.25-.37.38-.08.49.05.49.39A19.33,19.33,0,0,1,765.55,471.59Zm.37-13.19c-.16.56-.32,1.25-1,1.28s-1-.66-1.14-1.2a18.07,18.07,0,0,1-.67-6c0-.29.14-.42.44-.45.76-.07,1.51-.14,2.27-.23.38,0,.47.14.47.44l0,2.06A13.37,13.37,0,0,1,765.92,458.4Zm-.46-14.21a2.21,2.21,0,0,1-2.24-1.93c0-.78,0-1.57-.06-2.36,0-.33,0-.66,0-1l4.68-.06V439c0,.3,0,.61,0,.91,0,.7,0,1.41,0,2.12A2.26,2.26,0,0,1,765.46,444.19ZM772,470.52a1.59,1.59,0,0,1-.91,1c-.44.15-.68.1-.74-.45-.18-1.53,0-3.06-.28-4.57-.1-.48.12-.72.61-.81s1.14-.22,1.7-.36c.38-.09.6,0,.54.39A25.68,25.68,0,0,1,772,470.52Zm1.49-13.42a7,7,0,0,1-.34,1,.76.76,0,0,1-.69.54c-.41,0-.58-.28-.73-.58a8.31,8.31,0,0,1-.59-2.82,15.7,15.7,0,0,1,0-1.68c0-.64,0-1.28,0-1.93,0-.38.15-.52.55-.55,2.2-.12,2.19-.14,2.23,2A18.79,18.79,0,0,1,773.44,457.1Zm-.62-13.35a2.08,2.08,0,0,1-2.07-2c0-.5,0-1,0-1.49v-.35l0-1.08,4.25-.06c0,.38,0,.75,0,1.12,0,.59,0,1.19,0,1.78A2,2,0,0,1,772.82,443.75ZM778,468.17a2.54,2.54,0,0,1-.85,1.22c-.39.27-.62.21-.63-.29l0-2.12h0c0-.69,0-1.38,0-2.06a.57.57,0,0,1,.55-.67,7.57,7.57,0,0,0,1-.27c.38-.11.54,0,.55.39A10.47,10.47,0,0,1,778,468.17Zm1.5-12.35c-.14.47-.22,1.15-.8,1.15s-.68-.71-.8-1.19a11.47,11.47,0,0,1-.26-3.13c0-.31,0-.81,0-1.3s.14-.68.61-.73a11.37,11.37,0,0,0,1.32-.23c.39-.1.57,0,.53.38A24.44,24.44,0,0,1,779.5,455.82Zm.63-12.72a1.38,1.38,0,0,1-2.3-.09,2.56,2.56,0,0,1-.47-1.46c0-.57,0-1.13,0-1.7,0-.37,0-.76,0-1.13l3.28,0v1.17l0,1.76A2.24,2.24,0,0,1,780.13,443.1Zm4.34,12.1c-.08.38-.11.95-.58,1s-.48-.57-.59-1a11.94,11.94,0,0,1-.15-2.24c0-.88.06-1.76.09-2.63,0-.71.56-.62,1-.67s.41.36.42.63A22.14,22.14,0,0,1,784.47,455.2Zm1.27-13.79c0,1-.63,1.78-1.39,1.79s-1.3-.71-1.35-1.79c0-.53,0-1,0-1.58s0-.8,0-1.19l2.78,0c0,.4,0,.81,0,1.21S785.75,440.89,785.74,441.41Zm2.81,7.94A21.5,21.5,0,0,1,788,454c-.09.28-.13.68-.52.66s-.37-.43-.41-.73,0-.38,0-.58a24.33,24.33,0,0,1,.16-3.72,1,1,0,0,1,1.14-.64C788.57,449,788.56,449.19,788.55,449.35Zm.68-8.07c-.16.53-.45,1-1.07,1s-.81-.46-1-.93a2.66,2.66,0,0,1-.14-.68c0-.3,0-.6,0-.89s0-.82,0-1.24l2.22,0v2.14A2.78,2.78,0,0,1,789.23,441.28ZM412.08,423.56l61.16-55.08a.37.37,0,0,1,.62.24l1.91,18.57a.36.36,0,0,0,.18.28l25.33,16.11a.37.37,0,0,0,.53-.5L485.74,375a.38.38,0,0,1,0-.43l16.38-19.17a.38.38,0,0,1,.64.11L521.59,402a.38.38,0,0,0,.6.15l10.33-9a.37.37,0,0,0,.06-.49l-27.71-40.2a.38.38,0,0,1,0-.46l42.5-47.71a.38.38,0,0,1,.65.16l12.82,52.22a.38.38,0,0,0,.22.26l75.14,33.19a.4.4,0,0,0,.38,0l16.58-12.5a.38.38,0,0,1,.58.17L658.34,390a.43.43,0,0,0,.21.21l36.82,15.38a.38.38,0,0,0,.4-.64l-14.41-12.5a.36.36,0,0,1,0-.54l27.88-28.77a.38.38,0,0,1,.56,0l31,35.76a.38.38,0,0,0,.66-.25v-26a.4.4,0,0,1,.17-.32l14.63-9.23a.38.38,0,0,1,.51.1L797.92,421Zm392.82,5.21h-.09a.76.76,0,0,1,.11-.14S804.91,428.72,804.9,428.77Z"/><path class="cls-5" d="M387.86,319.86l-27.6-13.41L369.7,287l4.62,3.09-6.14,12.63,6,2.93,5.73-11.79,4.95,2.4-5.73,11.79,6.72,3.26,6.2-12.76,5.28,1.72Z"/><path class="cls-5" d="M389.89,281.94l-17.35-.21L377,275l11,.33.1-.15q-3.23-7.61-4.55-10.15l4.12-6.23,2.64,6q2,4.5,4.23,9.86l11.41.15q5.71.08,7.82.13l-4.47,6.75-12.89-.38-.1.15q4.24,9.73,5.34,11.79l-4.12,6.23Z"/><path class="cls-5" d="M419.93,268.15l-4.54,5.18-23.06-20.24L402.09,242a9.35,9.35,0,0,1,3.95-2.7,9,9,0,0,1,9.06,1.79l.2.18a9.41,9.41,0,0,1,2.74,4,9.12,9.12,0,0,1,.36,4.78,9,9,0,0,1-2.14,4.34l-5.22,6Zm-13-11.39,4.16-4.74a3.78,3.78,0,0,0,1-2.87,3.69,3.69,0,0,0-1.26-2.6l-.2-.18a3.82,3.82,0,0,0-5.49.42L401,251.54Z"/><path class="cls-5" d="M433.69,253.18l-20.4-22.93,5.18-4.61,16.59,18.65,9.43-8.39,4.37,3.77Z"/><path class="cls-5" d="M466.21,220.48a12.18,12.18,0,0,1-1.4,6.67A15.64,15.64,0,0,1,453.42,235a12.17,12.17,0,0,1-6.74-1.06,14,14,0,0,1-5.65-5l-2.49-3.61a14,14,0,0,1-2.63-7,12.17,12.17,0,0,1,1.4-6.67,15.64,15.64,0,0,1,11.38-7.84,12.18,12.18,0,0,1,6.74,1.06,14,14,0,0,1,5.65,5l2.49,3.61A14,14,0,0,1,466.21,220.48Zm-16.1-10.67a6.76,6.76,0,0,0-7.66,5.28,7.27,7.27,0,0,0,1.51,5.34l3.6,5.23A7.27,7.27,0,0,0,452,229a6.76,6.76,0,0,0,7.66-5.28,7.27,7.27,0,0,0-1.51-5.34l-3.6-5.23A7.27,7.27,0,0,0,450.11,209.82Z"/><path class="cls-5" d="M494.63,212.89a5.86,5.86,0,0,1-3.83.63,4.48,4.48,0,0,1-2.94-2.75,14.45,14.45,0,0,0-3.54-4.94,3.78,3.78,0,0,0-4.34-.27l-4.66,2.28,5.58,11.41-6.11,3-13.48-27.57,12.34-6a14.06,14.06,0,0,1,7.4-1.62,6.27,6.27,0,0,1,5.23,3.92,7.58,7.58,0,0,1,.75,3.17,7.88,7.88,0,0,1-.61,3.29,5.7,5.7,0,0,1-1.9,2.47l.1.2a6.83,6.83,0,0,1,4.27.9,9.25,9.25,0,0,1,3.74,4.29q2.16,4.42,4.53,4.06l.67,1.37A10.67,10.67,0,0,1,494.63,212.89ZM480.82,198a3.13,3.13,0,0,0-.1-2.59l-.14-.28a3.23,3.23,0,0,0-2-1.75,3.57,3.57,0,0,0-2.73.27l-6,2.95L473,203l6-2.95A3.57,3.57,0,0,0,480.82,198Z"/><path class="cls-5" d="M500.81,210.05l-9.55-29.17,20.54-6.72,1,5.47L499.44,184l2.09,6.38L514,186.3l1.71,5.23-12.46,4.08,2.32,7.1L519,198.3l2.44,5Z"/><path class="cls-5" d="M546.95,198.75a5.86,5.86,0,0,1-3.85-.45,4.49,4.49,0,0,1-2.07-3.45,14.44,14.44,0,0,0-2-5.72,3.78,3.78,0,0,0-4.1-1.45l-5.11.92L532,201.12l-6.69,1.2-5.42-30.21,13.52-2.42a14.06,14.06,0,0,1,7.56.46,6.27,6.27,0,0,1,4,5.2,7.58,7.58,0,0,1-.14,3.25,7.88,7.88,0,0,1-1.49,3,5.7,5.7,0,0,1-2.51,1.86l0,.22a6.82,6.82,0,0,1,3.86,2,9.25,9.25,0,0,1,2.42,5.16q.87,4.84,3.24,5.15l.27,1.5A10.67,10.67,0,0,1,546.95,198.75Zm-9.22-18.07a3.13,3.13,0,0,0,.62-2.52l-.06-.31a3.23,3.23,0,0,0-1.42-2.22,3.57,3.57,0,0,0-2.7-.49l-6.6,1.18,1.25,7,6.6-1.18A3.57,3.57,0,0,0,537.73,180.68Z"/><path class="cls-5" d="M554.66,173.7l-2.81.21-.49-6.56,6.51-.48.41,5.49L557,180l-3.26.24Q554,178.06,554.66,173.7Z"/><path class="cls-5" d="M582.32,175.35a3.09,3.09,0,0,0-1.28-2.69,6.28,6.28,0,0,0-3.69-1.05,7.74,7.74,0,0,0-3.84.69,2.34,2.34,0,0,0-.61,3.92,6.39,6.39,0,0,0,2.14,1.24q1.31.48,3.58,1.07a43.17,43.17,0,0,1,5.48,1.79,9.34,9.34,0,0,1,3.65,2.73,7.08,7.08,0,0,1,1.43,4.82q-.13,5.23-3.56,7.59t-9.34,2.21a15.65,15.65,0,0,1-8.82-2.56,8,8,0,0,1-3.34-7.22l.07-1,6.53.16-.06.71a3.72,3.72,0,0,0,1.4,3.14,6.67,6.67,0,0,0,4.13,1.24,7.87,7.87,0,0,0,4.52-.87,3,3,0,0,0,1.42-2.47,2.43,2.43,0,0,0-.78-1.92,6,6,0,0,0-2.07-1.21q-1.26-.46-3.53-1a45.26,45.26,0,0,1-5.5-1.83,9.18,9.18,0,0,1-3.65-2.82,7.65,7.65,0,0,1-1.44-5.09,7.88,7.88,0,0,1,1.73-5,9.58,9.58,0,0,1,4.39-3,17.29,17.29,0,0,1,6.08-.86,14.48,14.48,0,0,1,8.35,2.46,7.65,7.65,0,0,1,3.1,6.81v.54l-6.48-.16Z"/><path class="cls-5" d="M621.21,196.28a6.34,6.34,0,0,0,4,3,5.69,5.69,0,0,0,4.62-.45,7,7,0,0,0,2.82-4.38L626,192.65l1.32-4.83,12.95,3.54-2.79,10.23q-.59,2.16-.93,3.83t-.42,2.11l-3.67-1q-.14-1.71-.13-3.61a9.6,9.6,0,0,1-4.36,1.78,11.87,11.87,0,0,1-5-.3l-.22-.06a12.93,12.93,0,0,1-5.89-3.32,11.55,11.55,0,0,1-3.11-5.77,15.18,15.18,0,0,1,.32-7.38l1.16-4.23a14.69,14.69,0,0,1,3.54-6.5,11.67,11.67,0,0,1,5.85-3.32,14.41,14.41,0,0,1,7.15.24l.6.17a13.34,13.34,0,0,1,5.54,3,10.88,10.88,0,0,1,3.18,5,11,11,0,0,1,0,6.19l-6.3-1.72a5.5,5.5,0,0,0-.48-4.68,6.32,6.32,0,0,0-3.75-2.56,6.12,6.12,0,0,0-4.93.58,7.27,7.27,0,0,0-3.11,4.6l-1.67,6.13A7.11,7.11,0,0,0,621.21,196.28Z"/><path class="cls-5" d="M640.63,209.32l12.21-28.15,19.82,8.6-2.89,4.75-12.89-5.59-2.67,6.16,12,5.22-2.19,5-12-5.22-3,6.85,13,5.64L660.58,218Z"/><path class="cls-5" d="M687.85,204.79,675,226.41l-5.89-3.49L682,201.3l-7.5-4.45,2.83-4.77,20.86,12.36-2.83,4.77Z"/><path class="cls-5" d="M702.42,238.66l-9.58-7.57-5.43,3.41-5.23-4.13,27.77-17.17,6.46,5.1-10.29,31-5.69-4.49Zm-4.86-10.51,6.67,5.27q1.8-5,4.23-12l-.18-.14Z"/><path class="cls-5" d="M716.64,260.45l-5.08-5.72,17.25-26.8,4.78,5.39L722.17,250.7l.15.17L741,241.61l4.6,5.19-11.43,17.38.15.17,18.62-9.29,4.33,4.88-28.68,13.91-5-5.65,10.46-16-.18-.2Z"/><path class="cls-5" d="M749.54,294.76l-6.39-10.41-6.27,1.33L733.38,280l32-6.57,4.31,7L749.36,306l-3.79-6.17Zm-1-11.54,4.45,7.24q3.42-4.09,8.1-9.81l-.12-.19Z"/><path class="cls-5" d="M766.74,316.75,756,321.46l-2.76-6.31L764,310.44l13.14-17.21,3.11,7.13-8.59,10.73.09.2,13.71,1,2.83,6.48Z"/><path class="cls-4" d="M340.5,428.81v.38a.31.31,0,0,1-.31.31h-1.38a.31.31,0,0,1-.31-.31v-.38a.32.32,0,0,1,.07-.19.3.3,0,0,1,.24-.12h1.38a.31.31,0,0,1,.29.21.13.13,0,0,1,0,.06A.06.06,0,0,1,340.5,428.81Z"/><circle class="cls-5" cx="478" cy="288" r="13"/><path class="cls-6" d="M611.53,310.35s6.13-5.51,15.19-.35c0,0,6.15-4.61,14.3-.33"/><path class="cls-6" d="M641.5,302.5s4.77-4.09,11.59,0a10.46,10.46,0,0,1,10.91,0"/><path class="cls-6" d="M634,318.36s7.42-6.36,18,0c0,0,7.42-5.3,17,0"/></g><g id="Layer_3" data-name="Layer 3"><path class="cls-5" d="M340.18,435H340a0,0,0,0,1,0,0l-1-5,.43-.38Q339.77,432.32,340.18,435Z"/><path class="cls-5" d="M340.5,428.81v.38a.31.31,0,0,1-.31.31h-.62l.84-.73a.19.19,0,0,0,.07-.06.13.13,0,0,1,0,.06A.06.06,0,0,1,340.5,428.81Z"/><path d="M804.92,428.63s0,.09,0,.14h-.09A.76.76,0,0,1,804.92,428.63Z"/></g></svg>